<svg xmlns="http://www.w3.org/2000/svg" version="1.1" xmlns:xlink="http://www.w3.org/1999/xlink" xmlns:svgjs="http://svgjs.dev/svgjs" viewBox="0 0 23.52245252563748 11.25331695228843"><g transform="matrix(0.7952144854388515,0,0,0.7952144854388515,10.888720274277762,2.684556632075273)"><g transform="matrix(1,0,0,1,0,0)" clip-path="url(#SvgjsClipPath115872)"><g clip-path="url(#SvgjsClipPath11587030b7a29e-4c07-4a1c-a367-fecef045ccca)"><path d=" M -6.28696891908015 -0.16096600517583237 C -6.670588940958837 0.5254398196856898 -7.1480588610471445 1.1495073909919267 -7.541497728723941 1.8256376795531235 C -7.5601585244059475 1.8612623778711184 -7.549965396235201 1.9051777629645636 -7.517520312771816 1.9289403593039394 C -7.485075229308405 1.9527029556433155 -7.440131066097943 1.949169812124865 -7.411797626088775 1.9206293040183269 C -6.918215065055122 1.3007642984402108 -6.49415119788377 0.628602394137167 -6.147221625395766 -0.08378531029786063 C -6.128509140698412 -0.12204881905295978 -6.143093228693108 -0.1682641548233681 -6.180378739884327 -0.18885647963160418 C -6.217664251075596 -0.20944880443984032 -6.264547720181335 -0.1971812371333927 -6.28696891908015 -0.16096600517583864 Z" fill="#518c21" transform="matrix(1,0,0,1,0,0)" fill-rule="evenodd"></path></g><g clip-path="url(#SvgjsClipPath11587030b7a29e-4c07-4a1c-a367-fecef045ccca)"><path d=" M -5.7898613073956735 -0.2536741771298516 C -6.26436273921943 0.5521562140665244 -6.803485877109662 1.3499945214737656 -7.211082150355816 2.191446771844598 C -7.234582841594331 2.234532482988909 -7.218901528050363 2.2885086101175873 -7.175972923030204 2.3122950740103514 C -7.13304431801002 2.3360815379031035 -7.078965184906643 2.320759225510307 -7.054893998590922 2.27798962201842 C -6.52604639700099 1.507324399494254 -6.099725813163174 0.6434943145138343 -5.635499917639743 -0.16804470796049842 C -5.614723515846052 -0.21031552981772955 -5.630752320966755 -0.26145263428512616 -5.671940151732954 -0.284300913186494 C -5.713127982499154 -0.30714919208785546 -5.76499744137506 -0.2936775447191879 -5.7898613073956735 -0.2536741771298516 Z" fill="#518c21" transform="matrix(1,0,0,1,0,0)" fill-rule="evenodd"></path></g><g clip-path="url(#SvgjsClipPath11587030b7a29e-4c07-4a1c-a367-fecef045ccca)"><path d=" M -5.201872285766103 -0.2641780586812905 C -5.672618303985577 0.648450805932566 -6.193115394045605 1.5345460277922278 -6.761013660401691 2.390107140317569 C -6.832257378750567 2.4997128608542636 -6.658029952147309 2.591507651803814 -6.585872852793927 2.4873822172938747 C -6.008631686727288 1.6371000956646249 -5.497903903121051 0.7435173292803183 -5.058243122812687 -0.185398947045458 C -5.012574072589082 -0.2797055357573379 -5.153919783031295 -0.3587129926442594 -5.201872285766103 -0.2641780586812905 Z" fill="#518c21" transform="matrix(1,0,0,1,0,0)" fill-rule="evenodd"></path></g><g clip-path="url(#SvgjsClipPath11587030b7a29e-4c07-4a1c-a367-fecef045ccca)"><path d=" M -4.578033059711011 -0.3331383245190073 C -5.159628414309239 0.6128960508639925 -5.75743628173687 1.5511666877089718 -6.316653801725536 2.5102167424057087 C -6.382188888796467 2.623019296458137 -6.209331533699931 2.7157274684121564 -6.141056303615581 2.6074918193820893 C -5.551240519977099 1.6673944205281668 -4.999330048024206 0.7024073893023528 -4.4307503727397215 -0.25139072461867384 C -4.374349095713526 -0.34501227757716163 -4.521631782684791 -0.4256181512219062 -4.578033059711011 -0.3331383245190073 Z" fill="#518c21" transform="matrix(1,0,0,1,0,0)" fill-rule="evenodd"></path></g><g clip-path="url(#SvgjsClipPath11587030b7a29e-4c07-4a1c-a367-fecef045ccca)"><path d=" M -3.9217688079970907 -0.13173781303269966 C -4.191763968932104 0.23884438227424087 -4.420403925207255 0.6378540313532335 -4.603607727836232 1.0581692905446227 C -4.628040669705889 1.1266728658801053 -4.522773508940355 1.184900904915263 -4.479159565976794 1.1266728658801053 C -4.205145264634864 0.7718243456423102 -4.015162015704446 0.3297479394773326 -3.7767695735369786 -0.05158862989017682 C -3.7194549155063017 -0.14224169458413854 -3.864454149966414 -0.22124915147106 -3.9217688079970907 -0.13173781303269966 Z" fill="#518c21" transform="matrix(1,0,0,1,0,0)" fill-rule="evenodd"></path></g><g clip-path="url(#SvgjsClipPath11587030b7a29e-4c07-4a1c-a367-fecef045ccca)"><path d=" M -3.3739685505643386 -0.22421763973559233 C -3.7377439374652637 0.3038111569754912 -4.0738637229073476 0.8503678421013903 -4.3809711079959515 1.4132461560335443 C -4.417963038677086 1.4908835414137442 -4.312467532660444 1.5822216418610542 -4.253326112620805 1.5073243994942602 C -3.8730905836206393 0.9819297917755265 -3.5313556159002175 0.42972027269890756 -3.2307960781131886 -0.14498183759756939 C -3.1764499083470374 -0.23517821178926554 -3.3193940355471048 -0.31418566867619324 -3.3739685505643386 -0.22421763973559233 Z" fill="#518c21" transform="matrix(1,0,0,1,0,0)" fill-rule="evenodd"></path></g><g clip-path="url(#SvgjsClipPath11587030b7a29e-4c07-4a1c-a367-fecef045ccca)"><path d=" M -3.1408280491726 -0.006832960670996646 C -3.465763341513914 0.5989669905457744 -3.8368243745810986 1.1753104043682927 -4.17431865573389 1.7726615812936948 C -4.233688421024636 1.8777003968081027 -4.080012067022054 1.955337782188315 -4.014476979951097 1.8617162292298146 C -3.634315189690068 1.2897558756150693 -3.2910977402394783 0.6940829244574889 -2.986923349918859 0.07833981799613476 C -2.9634035372484284 0.03584020885489003 -2.9787897020088137 -0.01767910696585623 -3.0212893109022376 -0.04119892008409992 C -3.0637889197956376 -0.06471873320234361 -3.1173082357785136 -0.049332569005858085 -3.1408280493445444 -0.006832960360272533 Z" fill="#518c21" transform="matrix(1,0,0,1,0,0)" fill-rule="evenodd"></path></g><g clip-path="url(#SvgjsClipPath11587030b7a29e-4c07-4a1c-a367-fecef045ccca)"><path d=" M -2.9186481198345344 0.3941413002926877 C -3.186953789898496 0.8590522315694866 -3.473298734800821 1.3189395673216895 -3.7219667132686123 1.7941260348988068 C -3.746063744386591 1.8435065563741961 -3.727249211854991 1.903108920864233 -3.679168725218916 1.9297053419527952 C -3.6310882385828664 1.9563017630413508 -3.5705998555432172 1.940566960709078 -3.5415739648851954 1.8939129096374985 C -3.26093765126084 1.4372224074009545 -3.0134113990486364 0.955185582290285 -2.7519560865182093 0.4866211269955867 C -2.729729166475124 0.4410029970678122 -2.74708250498354 0.3859679003161657 -2.7914558992390983 0.36134978432506315 C -2.8358292934946556 0.33673166833396073 -2.8917082839907975 0.35113787022690324 -2.91864811983456 0.394141300292694 Z" fill="#518c21" transform="matrix(1,0,0,1,0,0)" fill-rule="evenodd"></path></g><g clip-path="url(#SvgjsClipPath11587030b7a29e-4c07-4a1c-a367-fecef045ccca)"><path d=" M -2.5153904063596544 0.545534201784099 C -2.7483025625002844 1.0168388000922093 -3.0684426045681104 1.449781396212457 -3.29016584340396 1.9222277207761564 C -3.3340081316186527 2.0163059642368846 -3.211843422270393 2.122258160755761 -3.136261144150245 2.0364003463352938 C -2.813133057008601 1.6075302049405567 -2.5474482949256902 1.138263822215098 -2.34595823002991 0.6405258262492959 C -2.2922970960171076 0.5272665816946394 -2.459674165086782 0.43341668348503126 -2.5153904063596544 0.545534201784099 Z" fill="#518c21" transform="matrix(1,0,0,1,0,0)" fill-rule="evenodd"></path></g><g clip-path="url(#SvgjsClipPath11587030b7a29e-4c07-4a1c-a367-fecef045ccca)"><path d=" M -8.351666679691553 3.1945674600071667 C -8.6191793122907 3.504750225190969 -8.854372975491833 3.8413969779837647 -9.053599981629102 4.199286564927559 C -9.09378874582592 4.283774307841323 -8.97984446551789 4.383104492077767 -8.91430937844696 4.301813582679668 C -8.663129602216857 3.992634112665522 -8.462870816986138 3.6375572471766198 -8.218998088791835 3.3199290028710977 C -8.147982715694067 3.2285909024237878 -8.279281235087087 3.100945907048673 -8.351666679691553 3.1945674600071667 Z" fill="#518c21" transform="matrix(1,0,0,1,0,0)" fill-rule="evenodd"></path></g><g clip-path="url(#SvgjsClipPath11587030b7a29e-4c07-4a1c-a367-fecef045ccca)"><path d=" M -7.6926622849642134 2.915986253642875 C -7.919180774073526 3.2155752231100507 -8.14044732240716 3.520416133352937 -8.351666679691553 3.831879055878261 C -8.583066261415052 4.12773584183827 -8.776958998283812 4.451094931489684 -8.928923474518532 4.794582634592891 C -8.955183178397151 4.868794841206331 -8.848317600873788 4.9206292132101765 -8.799451717134474 4.8660546981929125 C -8.596776721934699 4.606006009579965 -8.414690229875799 4.3305477020962995 -8.254848293217405 4.0421850321581845 C -8.033581744883797 3.7026356437453165 -7.799756207738684 3.36947992236376 -7.559080313060015 3.0431745585157493 C -7.488978320966728 2.948867969803907 -7.620733530861989 2.819852902922083 -7.6926622849642134 2.915986253642875 Z" fill="#518c21" transform="matrix(1,0,0,1,0,0)" fill-rule="evenodd"></path></g><g clip-path="url(#SvgjsClipPath11587030b7a29e-4c07-4a1c-a367-fecef045ccca)"><path d=" M -7.274105439664437 3.138622873483187 C -7.4837263801909994 3.4583062250487657 -7.693880126303505 3.7769239654424585 -7.904566678001978 4.094476094664271 C -8.111582951972144 4.365322452562573 -8.289601713449455 4.657147705147663 -8.435697732103089 4.9651565371782365 C -8.466981031506279 5.044620684567398 -8.351666679691553 5.091659806297763 -8.30006065293882 5.03982543429391 C -8.077282329233599 4.779994223775242 -7.882494634401404 4.497418125810451 -7.718921988842832 4.196774767165254 L -7.099878013061179 3.2354412599573275 C -7.030232711470132 3.126748920425039 -7.20446013807334 3.0326706769643104 -7.274105439664437 3.138622873483187 Z" fill="#518c21" transform="matrix(1,0,0,1,0,0)" fill-rule="evenodd"></path></g><g clip-path="url(#SvgjsClipPath11587030b7a29e-4c07-4a1c-a367-fecef045ccca)"><path d=" M -7.077043487949352 3.742824407942135 C -7.504962488544997 4.4680489254937665 -7.979692265619886 5.158564964875416 -8.42930406507177 5.86894704110436 C -8.502374545429634 5.984718083421328 -8.324036904306237 6.074457767110808 -8.24662786417715 5.970103987349761 C -7.763342724791752 5.282690892608909 -7.31867631797974 4.568922408641668 -6.914690014404249 3.832107401129356 C -6.890035196626017 3.787274727368885 -6.906392580822716 3.7309439855415034 -6.951225254583193 3.706289167763228 C -6.99605792834372 3.6816343499849467 -7.052388670171095 3.697991734181633 -7.077043487949352 3.742824407942135 Z" fill="#518c21" transform="matrix(1,0,0,1,0,0)" fill-rule="evenodd"></path></g><g clip-path="url(#SvgjsClipPath11587030b7a29e-4c07-4a1c-a367-fecef045ccca)"><path d=" M -6.842989605553132 4.304553725693086 C -7.240767033001151 4.949857405353322 -7.6606939498076745 5.594932739762442 -8.009148803014138 6.268322885310222 C -8.03329683500665 6.31565894902468 -8.015608795230296 6.37361662250838 -7.969144710972853 6.399402650725422 C -7.922680626715436 6.425188678942465 -7.864140719369084 6.40953499200766 -7.8367481384198445 6.363999545528773 C -7.432805389191615 5.719609246873013 -7.076586797447137 5.04393564881405 -6.687029799039347 4.39018319486244 C -6.628345069501973 4.291538046379344 -6.783163149760146 4.2072786487166995 -6.842989605553132 4.304553725693086 Z" fill="#518c21" transform="matrix(1,0,0,1,0,0)" fill-rule="evenodd"></path></g><g clip-path="url(#SvgjsClipPath11587030b7a29e-4c07-4a1c-a367-fecef045ccca)"><path d=" M -6.779509625742246 5.3770913701956005 C -7.082980464478428 5.910049186305647 -7.43851402046956 6.441865276160105 -7.690378832453035 7.001082796148747 C -7.706686601180341 7.033874961905748 -7.694317456939488 7.073693910830537 -7.662300011003363 7.09147459168438 C -7.630282565067239 7.109255272538212 -7.589942797543361 7.09870787575759 -7.570725920867036 7.06753126422416 C -7.222042722409464 6.561974878248308 -6.951681945085433 5.982891321412372 -6.653234701873846 5.446279981284437 C -6.6372706947657525 5.411831233794791 -6.650733531814877 5.37090440538756 -6.684030856212193 5.352660120952876 C -6.717328180609508 5.334415836518186 -6.759067649171513 5.345096193677343 -6.779509625742246 5.3770913701956005 Z" fill="#518c21" transform="matrix(1,0,0,1,0,0)" fill-rule="evenodd"></path></g><g clip-path="url(#SvgjsClipPath11587030b7a29e-4c07-4a1c-a367-fecef045ccca)"><path d=" M -6.228512534793859 5.473453066167519 C -6.563495018184366 6.0294737526405076 -6.937524539516101 6.586407820117971 -7.219530924647153 7.17211338923634 C -7.23951426156281 7.212712109258446 -7.224063685953988 7.261848200678484 -7.184441750670796 7.2837043683693725 C -7.1448198153876055 7.3055605360602485 -7.09501623155878 7.2924198053161176 -7.071334856671408 7.253860989136679 C -6.712147776662377 6.710170946224073 -6.415070604957487 6.115559912312095 -6.083513300333747 5.553602249310029 C -6.028938785316514 5.462264148862719 -6.17348132927436 5.383485037226918 -6.228512534793859 5.473453066167519 Z" fill="#518c21" transform="matrix(1,0,0,1,0,0)" fill-rule="evenodd"></path></g><g clip-path="url(#SvgjsClipPath11587030b7a29e-4c07-4a1c-a367-fecef045ccca)"><path d=" M -5.520642256327232 5.321375128922741 C -5.877089193322869 5.943844283471148 -6.305236539169622 6.548730853683451 -6.6212663667173075 7.1922077713347425 C -6.661683476165258 7.275553787992911 -6.543628981337089 7.378080805745015 -6.481062382530684 7.294049753333491 C -6.070251472170607 6.688870305424714 -5.700051697561299 6.057097271566417 -5.372902878853726 5.4028943835719785 C -5.353319475158576 5.3624689682491 -5.368792144671324 5.313787285765742 -5.408121403602429 5.292086288179348 C -5.447450662533509 5.270385290592948 -5.496884816290058 5.283252852663426 -5.520642256327232 5.321375128922741 Z" fill="#518c21" transform="matrix(1,0,0,1,0,0)" fill-rule="evenodd"></path></g><g clip-path="url(#SvgjsClipPath11587030b7a29e-4c07-4a1c-a367-fecef045ccca)"><path d=" M -5.063495063588441 5.448106743293387 C -5.199132142752684 5.7271446401599135 -5.340858428613435 6.003594624180432 -5.488673921170643 6.277456695354945 C -5.637793378444602 6.51275652003082 -5.768125795864789 6.7594489867470156 -5.878459264829541 7.015240201718073 C -5.903348897201438 7.0867122653181 -5.799223462691517 7.139460018326421 -5.751727650458925 7.084885503309157 C -5.582606445123356 6.862947512710275 -5.440275857997335 6.621820949921654 -5.327690519132287 6.366511343291071 C -5.183604665676656 6.090670279940204 -5.047510896010172 5.811632383073678 -4.916669067119416 5.529625997942613 C -4.86962994538904 5.431665885212871 -5.015542560853634 5.349233249559177 -5.063495063588441 5.448106743293387 Z" fill="#518c21" transform="matrix(1,0,0,1,0,0)" fill-rule="evenodd"></path></g><g clip-path="url(#SvgjsClipPath11587030b7a29e-4c07-4a1c-a367-fecef045ccca)"><path d=" M -5.088613041211446 6.463101384514098 C -5.251859749882994 6.704583820920317 -5.396295275711891 6.958262072680041 -5.520642256327232 7.22189265398011 C -5.549642103219244 7.296561551095789 -5.432729334646713 7.356616352139897 -5.385005177162963 7.296561551095789 C -5.217009233055318 7.058185715305697 -5.067975267440328 6.806996295800953 -4.939275246980111 6.545305674916678 C -4.924590864755317 6.518629047208351 -4.925253747562962 6.486144802000453 -4.941014193862718 6.460089440179044 C -4.956774640162449 6.434034078357636 -4.985238263216901 6.418366029246204 -5.015683091605809 6.418987295357273 C -5.046127919994742 6.419608561468356 -5.073928659996674 6.43642475769961 -5.088613041823913 6.463101385626752 Z" fill="#518c21" transform="matrix(1,0,0,1,0,0)" fill-rule="evenodd"></path></g><g clip-path="url(#SvgjsClipPath11587030b7a29e-4c07-4a1c-a367-fecef045ccca)"><path d=" M -2.8350737579252394 2.6812473354932944 C -2.9289236561348346 2.819852902922083 -3.019348375577664 2.960285232359821 -3.1054345352492447 3.1041427405643316 C -3.1977862325071946 3.229209552540268 -3.2673554492336914 3.3695847720683414 -3.3109452612557178 3.5188177165951138 C -3.3184695063488405 3.5530022681343834 -3.30253586509974 3.588051780741014 -3.271831307159192 3.6048573735552853 C -3.241126749218643 3.6216629663695565 -3.2030158996651474 3.616193743049032 -3.1782766703559746 3.591431506450718 C -3.082130094106268 3.4699133919395173 -3.002293063942572 3.336339899165641 -2.9407976091929893 3.1941107695049324 C -2.858364973539282 3.049111535044833 -2.769538670854283 2.9073091341003856 -2.678657260909188 2.7675618404160023 C -2.616547352605048 2.6707434539418555 -2.7722788138677013 2.58739743728368 -2.8350737579252394 2.6812473354932944 Z" fill="#518c21" transform="matrix(1,0,0,1,0,0)" fill-rule="evenodd"></path></g><g clip-path="url(#SvgjsClipPath11587030b7a29e-4c07-4a1c-a367-fecef045ccca)"><path d=" M -2.1957070547940685 2.430067559263198 L -2.609011959318142 3.1705912086397503 C -2.7475089410297366 3.3839448509320444 -2.864826902192016 3.6103210993286163 -2.9592935745335938 3.8464931519498338 C -2.9669286299756665 3.8801581145742556 -2.951350010185836 3.914810140625516 -2.921102002655088 3.9314438960802542 C -2.8908539951243153 3.9480776515349856 -2.85324756917519 3.94267274345577 -2.8289084361450287 3.9181935608009626 C -2.681523169222862 3.71099402037975 -2.554867318974768 3.489805180453697 -2.450768700293179 3.257819094566933 C -2.317567303807518 3.0086183105131914 -2.1848225978240983 2.7592652962920385 -2.0525345823428935 2.509760051903468 C -2.032365255222288 2.4704403543474505 -2.0469925335548194 2.422210037977006 -2.0856049352797523 2.4007176485001223 C -2.124217337004711 2.3792252590232383 -2.1729163741819333 2.3922069563938617 -2.1957070547940685 2.430067559263198 Z" fill="#518c21" transform="matrix(1,0,0,1,0,0)" fill-rule="evenodd"></path></g><g clip-path="url(#SvgjsClipPath11587030b7a29e-4c07-4a1c-a367-fecef045ccca)"><path d=" M -1.6401430588233268 2.454957191635083 C -2.0398325279002956 3.107543554563416 -2.3875344513580457 3.7905785583519656 -2.6800273324159347 4.497733808139114 C -2.7163342273437214 4.595922266119995 -2.560602766081068 4.651410162141735 -2.512421918095103 4.563953930963431 C -2.147069516305863 3.903122774227156 -1.8502206898521303 3.2034729248007765 -1.4848682880628905 2.541500041808905 C -1.4663649151547808 2.4993477470852032 -1.4829439729230751 2.450037073858459 -1.5231547934676941 2.4276254547608 C -1.5633656140122891 2.405213835663147 -1.6140245913474347 2.4170491922660906 -1.6401430588233268 2.454957191635083 Z" fill="#518c21" transform="matrix(1,0,0,1,0,0)" fill-rule="evenodd"></path></g><g clip-path="url(#SvgjsClipPath11587030b7a29e-4c07-4a1c-a367-fecef045ccca)"><path d=" M -3.1175368335585567 5.419335241652482 C -3.3513623707036686 5.888128042198295 -3.627660124556776 6.329747757861026 -3.8745013410156313 6.789406748362108 C -3.8991561587939128 6.833545808323224 -3.8833610596789523 6.889314265068849 -3.8392219997178554 6.913969082847131 C -3.7950829397567327 6.938623900625406 -3.7393144830111202 6.92282880151047 -3.7146596652328387 6.878689741549355 C -3.432514305070553 6.43825715466931 -3.1839058148777672 5.977220838806673 -2.97093918234064 5.499484424794999 C -2.9245850963636117 5.40494949083203 -3.0693559855725914 5.32274520042945 -3.1175368335585567 5.419335241652482 Z" fill="#518c21" transform="matrix(1,0,0,1,0,0)" fill-rule="evenodd"></path></g><g clip-path="url(#SvgjsClipPath11587030b7a29e-4c07-4a1c-a367-fecef045ccca)"><path d=" M -3.416440767272359 5.091659806297763 C -3.7316296464804983 5.557025714483685 -3.998936375947042 6.053080904483993 -4.2142790746796255 6.572250414548633 C -4.251499350611893 6.673864051296268 -4.091886020080233 6.730265328322482 -4.041878410085306 6.6407539898841215 C -3.770832597007926 6.158260474271212 -3.5509361201810394 5.652475743044239 -3.2655045562831955 5.1756908587092925 C -3.2086465887547337 5.079557507988494 -3.3579843829860945 4.998038253339269 -3.416440767272359 5.091659806297763 Z" fill="#518c21" transform="matrix(1,0,0,1,0,0)" fill-rule="evenodd"></path></g><g clip-path="url(#SvgjsClipPath11587030b7a29e-4c07-4a1c-a367-fecef045ccca)"><path d=" M -1.4136245697140142 3.037694272488913 C -2.0708022024323913 4.468962306498241 -2.803333768019808 5.857301433297333 -3.580164312324184 7.226687904253604 C -3.60591953434154 7.276351244620379 -3.5874193126055864 7.337492332380255 -3.538450979008367 7.364545634253814 C -3.4894826454111723 7.391598936127372 -3.427875860182872 7.374714184705497 -3.399543218689584 7.326474778992289 C -2.6164125891495535 5.96164457218649 -1.9047656629012408 4.557024115526951 -1.2674836089983383 3.1183001461337136 C -1.2234129755324625 3.0207967239061624 -1.3690972457459232 2.938820778754696 -1.4136245697140142 3.037694272488913 Z" fill="#518c21" transform="matrix(1,0,0,1,0,0)" fill-rule="evenodd"></path></g><g clip-path="url(#SvgjsClipPath11587030b7a29e-4c07-4a1c-a367-fecef045ccca)"><path d=" M -1.1359567443541856 3.518132680841753 C -1.74655194584445 4.713291725194792 -2.411721662351974 5.896120125987429 -2.96020695553805 7.120279017232487 C -3.0134113990485867 7.239703583567341 -2.846034329978912 7.337663696297082 -2.779585861903475 7.220065891971179 C -2.1253767174496243 6.048654753734442 -1.5741512812501304 4.807826659157761 -0.9802252830915066 3.6042188405133464 C -0.9297609825943898 3.5023768585145976 -1.083665681848105 3.4158340083407697 -1.1359567443541856 3.518132680841753 Z" fill="#518c21" transform="matrix(1,0,0,1,0,0)" fill-rule="evenodd"></path></g><g clip-path="url(#SvgjsClipPath11587030b7a29e-4c07-4a1c-a367-fecef045ccca)"><path d=" M -0.8619424430122553 3.9467367171907535 C -1.3700106267504042 5.019959397446628 -1.9867711500208793 6.070347552590681 -2.427705829930243 7.171885043985219 C -2.4500732657430513 7.215201910309707 -2.433870545699393 7.268452866944742 -2.3911672793533283 7.2919706078309785 C -2.3484640130072885 7.315488348717203 -2.2947988334780263 7.300715365759997 -2.270147606658604 7.258656239410161 C -1.64242651133448 6.258732384763252 -1.1900745688691767 5.1096990811361085 -0.6991322789649104 4.036704746131348 C -0.6491246689700088 3.9284690971012877 -0.8105647615106548 3.8375876871562182 -0.8619424430122553 3.9467367171907535 Z" fill="#518c21" transform="matrix(1,0,0,1,0,0)" fill-rule="evenodd"></path></g><g clip-path="url(#SvgjsClipPath11587030b7a29e-4c07-4a1c-a367-fecef045ccca)"><path d=" M -4.731937758964701 6.748304603160827 C -4.737418044991538 6.268931805979867 -4.743431136604318 5.790167929468559 -4.749977033803041 5.312012973626903 C -4.753890983587701 5.216687315732013 -4.832223805719178 5.141375039441106 -4.927629639173065 5.141210725790438 C -5.631998623789223 5.111982533647292 -6.335758687735736 5.081536500164861 -7.038909831012603 5.049872625343127 C -7.00853991261387 4.987534371787836 -6.976799922708413 4.924511082479197 -6.945516623305223 4.861944483672785 C -6.925650586457946 4.821070683722618 -6.902359370843879 4.781566955279154 -6.882036643494336 4.740464810077867 C -6.788415090535849 4.786133860301516 -6.722194967711545 4.881353830017833 -6.5851878170406035 4.800747956373089 C -6.441786999338321 4.714661796701501 -6.471015191481467 4.5509382516497014 -6.493849716593294 4.409592541207495 C -6.542110638111554 4.104828834461447 -6.631685229930227 3.808064985237224 -6.760100279397185 3.527494836137609 C -6.828603854732693 3.3790704229107305 -6.928619074722498 3.236811331464049 -6.984106970744238 3.0838200132148086 C -7.018587103663086 2.987458317242896 -7.008083222111654 2.840175630271606 -7.075445071191547 2.7581996851201525 C -7.191901149261863 2.613657141162287 -7.409285828326439 2.68969610978467 -7.55908031306004 2.7173258851699855 C -7.92443271484928 2.7874278772632914 -8.285446556867273 2.873514036934879 -8.643948601122954 2.9728442211713295 C -8.798081645627777 3.016458164134921 -9.049946457611254 3.0463713920314146 -9.115253199431052 3.224023997401426 C -9.17644972673076 3.3916294117222394 -9.01546632469238 3.530006633899907 -8.872978887994552 3.636872211423259 C -9.09559871100557 3.806354377249648 -9.222111626925916 4.0733426035795315 -9.212299931156306 4.35296291893016 C -9.184898501022124 4.696622521863155 -8.95381310689043 5.019046016442153 -8.792829704852048 5.312012973626897 C -8.557025175530594 5.740388664724771 -8.321068416041685 6.168612125655232 -8.084959426385396 6.59668335641829 C -7.938361775167454 6.864075645477782 -7.823047423352728 7.244727179091943 -7.497883785760331 7.330128303010176 C -7.0813596674065895 7.39560523774195 -6.65895759103176 7.415664933955519 -6.238103035340786 7.389954758803163 C -6.014172459077486 7.3960439654996515 -5.790165767730459 7.40213317219614 -5.566082961299729 7.408222378892629 C -5.374605126753144 7.435131631086321 -5.1801183663465915 7.432281726082339 -4.989511202226122 7.399773604601253 C -4.686497053992154 7.305695361140519 -4.728740925449018 7.011586677700192 -4.731937758964676 6.7501313651697705 Z M -2.2173998536503072 0.27585846021342275 C -2.080392702979342 0.41012546787096327 -2.1975338168030314 0.6841397692128934 -2.231557259219665 0.8302807299285881 C -2.3125824101485835 1.1816435470774178 -2.414142020543146 1.5279526690084233 -2.535713133709196 1.867424860507784 C -2.594854553748835 2.0313767508106917 -2.632074829681102 2.238942584077203 -2.817947864091381 2.2878084678165167 C -3.090135403424349 2.3588238409142974 -3.525818142558009 2.208801010929589 -3.7975489913887364 2.156509948423509 C -4.021327337484656 2.1144944222177466 -4.450159719084757 2.094856730621578 -4.630552467468199 1.9347867095876654 C -4.676988578587163 1.8971676961509312 -4.705574937791263 1.841842084650105 -4.709391899824095 1.782202052887481 C -4.713208861856904 1.7225620211248631 -4.691908516865267 1.6640436605555156 -4.650646849566609 1.620811989300043 C -4.630552467468199 1.5963790474303927 -4.590363703271381 1.5799381893498765 -4.5730094641863905 1.5575603547402896 C -4.492860281043886 1.4513798129702928 -4.459978564882841 1.622638751308993 -4.544237962545486 1.4253484543428065 C -4.596755746084829 1.3117064169793082 -4.657346162004907 1.2019721372651475 -4.725544091933384 1.096987983234732 C -4.805464929824805 1.2324728322315766 -4.886223033636955 1.3670443002239399 -4.967818403369884 1.500702387211841 C -5.150494604264528 1.8025748091901947 -5.3369765593444285 2.102011548489953 -5.527264268609658 2.399012605111116 C -5.625201685915135 2.60697017234091 -5.75630878142834 2.7976153135812782 -5.915451195510725 2.963482065875486 C -6.102237610925485 3.1064261930755284 -6.280803597299965 2.992710258018625 -6.457999512167748 2.8933800737821804 C -6.7386358257921035 2.7378769577706352 -7.013791853389598 2.567988090938638 -7.289404571489357 2.4040362006357245 C -7.686725308435161 2.167013829974954 -8.04294390017964 2.0003217966586218 -7.733992775416645 1.5233085670725544 C -7.56364721808242 1.261624909291013 -7.373435623900893 1.0163821095899874 -7.213822293369208 0.7457929870148365 C -7.061059320371083 0.4882195437534286 -6.941178063534 0.2155753139182076 -6.796178829073913 -0.04565165336109339 C -6.5376920048080365 -0.512617691897956 -6.042639500383606 -0.43931886628899147 -5.563114473035252 -0.45895655788516637 C -4.896846878497915 -0.48868351456655196 -4.229485319544389 -0.48380558631472176 -3.5637234542436493 -0.4443424618136063 C -3.3887355873662006 -0.45740423734842356 -3.2133243758143264 -0.42532545011705997 -3.0542851989988034 -0.35117759935734655 C -2.8921563733034867 -0.1965615395492598 -2.771271427645604 -0.0038520969583067943 -2.7026335122766794 0.2094099921380227 C -2.673444261308843 0.2535109142778219 -2.6387616762994597 0.29371815884622365 -2.599421458771215 0.3290629037239906 C -2.4809102734408297 0.2452601965635871 -2.355092040074646 0.13885130954247016 -2.216943163148117 0.27585846021342897 Z M -5.686192563387994 2.009227261452225 C -5.785066057122185 2.164958722714884 -5.937372339618096 2.5369331367865495 -6.108174587454537 2.6127437601578123 C -6.230110951551689 2.667318275175083 -6.293134240860335 2.5883108182881616 -6.409361973679543 2.521405659710502 C -6.525589706498749 2.454500501132849 -6.647754415847009 2.383028437532834 -6.767178982181876 2.314068171695117 C -6.974336293088084 2.2145279176556603 -7.173979953945688 2.1000533414758498 -7.3645301591072405 1.9715502950177108 C -7.532592263930313 1.8361415611045753 -7.544009526486201 1.8158188337550518 -7.400380363532836 1.6153317032732066 C -7.356538075318118 1.5532217949690357 -7.311782406098944 1.4920252676693393 -7.267940117884226 1.4294586688629338 C -7.019129376046744 1.070357154106805 -6.798351411045217 0.6926222402660505 -6.607565651650191 0.29960636632972504 C -6.53935402417297 0.06668594120088922 -6.3317812411890255 -0.09798175794898967 -6.0894502768628245 -0.11141508568316394 C -5.846032161932468 -0.13688549220090346 -5.601437140027443 -0.1494620514450098 -5.356690366024324 -0.14909205211767806 C -5.035941403286853 -0.15959593366911695 -4.715040210381976 -0.16256442193365556 -4.39398678730967 -0.15799751691128755 C -4.809346799093787 0.5727072866671803 -5.235667382931629 1.2993018757255208 -5.6866492538901845 2.0112823687122887 Z M -2.6492007235149853 1.184900904915263 C -2.581561482953915 0.9979398929264058 -2.524386645986108 0.8073571030338085 -2.477941785176279 0.6140377771195815 C -2.5020118996102223 0.6328898590290093 -2.5282249239491126 0.6488322831883384 -2.5560358610587377 0.6615335893521737 C -2.628123737119412 0.6717676475521281 -2.701432279284629 0.6546623210469036 -2.7615465870651352 0.613581086617347 C -2.929027630721092 0.446741740192088 -3.053534913278666 0.24176310509416177 -3.124387191092115 0.01622990969195115 C -3.168465948794905 -0.042576126280953475 -3.2263411237809825 -0.0896291140744977 -3.292905986417403 -0.1207772409790202 C -3.512319486246742 -0.16216241607506798 -3.7364477446943374 -0.172615585879212 -3.9587607386782757 -0.15183219513109636 L -4.014476979951173 -0.15183219513110263 C -4.200197784194046 0.18657546702617633 -4.39048549345925 0.5222429861700308 -4.585340107746835 0.8551703623004732 C -4.472765898945527 1.0207206693612163 -4.019500575475794 1.5945522854214365 -4.327081628732092 1.7292759835812177 C -4.301735305857954 1.7349846148591745 -4.277074018737164 1.7406932461371314 -4.2517276958630505 1.7454884964106134 C -4.097594651358228 1.7783702125716454 -3.943004916351164 1.8098818572259683 -3.7879584908418593 1.838425013615753 C -3.502386261640135 1.9127475613432057 -3.20994437612572 1.9575855898391414 -2.915222941067843 1.972235330771059 C -2.79749406323893 1.720485108359453 -2.708413839432634 1.4563082451540081 -2.649657414017276 1.1846725596641428 Z M -0.6338255371451122 3.849004949712132 C -0.7849900933854101 3.58184100590376 -0.9361546496257063 3.3141442565094383 -1.0873192058660042 3.045914701529174 C -1.230328019847124 2.7445278071620964 -1.396051793000625 2.4544539527248315 -1.5830567460437832 2.178202747279747 C -1.659640446645863 2.054964787673289 -1.8103461488679073 1.999768824234478 -1.9484091478330239 2.0443924301244287 C -2.0209461722112367 2.080873415811344 -2.087478467673355 2.128231473345149 -2.1456994447992166 2.1848247595621664 C -2.274793178805946 2.2770051311103043 -2.4169510553734224 2.3493540233536288 -2.5674531236146514 2.39946929561335 C -2.8526563422613878 2.5042797658766314 -3.637935660857101 2.7157274684121497 -3.637935660857101 3.1132765506090614 C -3.637935660857101 3.2900157749746044 -3.4401886733886933 3.468581761349097 -3.3499922991969724 3.607872364531233 C -3.1673160983023774 3.8917055116712485 -3.0095295297796296 4.189696064380595 -2.8517429612569067 4.487686617089935 C -2.730034942410863 4.71603186820821 -2.597594696762253 4.946660571837663 -2.465839486867017 5.177974311220471 C -2.5763909578655593 5.190221745683104 -2.688060854580349 5.188149520795615 -2.798081827244105 5.1718089894402794 C -3.0006240649860008 5.129336772732283 -3.0035925532505523 5.030006588495832 -3.050631674980929 4.8455036255922685 C -3.066639736756624 4.795624902146673 -3.1074704177104717 4.7576843842944845 -3.158388139924151 4.745374605297769 C -3.2093058621377795 4.73306482630106 -3.2629591026258105 4.748163077431044 -3.299984689202094 4.785220479297047 C -3.5730489875750475 5.043456954174404 -3.8316260102981623 5.316594180712415 -4.074531780995267 5.603381514053812 C -4.220901086962051 5.778522321661526 -4.515694806155763 6.028560371636033 -4.474135970452224 6.281795255126199 C -4.438285766026653 6.501235041450858 -4.178885560756296 6.703777279192767 -4.040279993327526 6.862248883468845 C -3.771137057342787 7.171276123315567 -3.500319589516491 7.478628831320764 -3.2278275898487125 7.784307007484421 C -3.199736952137285 7.8108348416535724 -3.160983233336953 7.822927599561107 -3.1227909862190124 7.817082758004504 C -3.084598739101021 7.8112379164479 -3.0512353234198137 7.788108540997041 -3.032364054891482 7.754393779587928 C -2.971955813067832 7.636109356981428 -2.9343107734338068 7.507527534363143 -2.9213882628480032 7.375340662731596 C -2.673554026829062 7.424223925929472 -2.418454479918939 7.423137074542763 -2.1710457676733794 7.372143829215944 C -1.967133458424736 7.301356801369278 -1.886755930031124 7.085798884313632 -1.786740710041319 6.912941529217102 C -1.448789738386262 6.329291067358797 -1.1109148818149315 5.745412260249379 -0.7731161403273052 5.161305107888841 C -0.6484396332167357 4.946660571837669 -0.42443294186970704 4.687488711818432 -0.4018267620090139 4.430600304310379 C -0.42054380399252445 4.2184300535445605 -0.5008652676991439 4.016356489713525 -0.6329121561407067 3.849233294963252 Z M -2.1637387196375553 7.013413439709142 C -2.353036932814576 7.197459712110471 -2.7387120619533585 7.124845922254855 -2.9777895398741983 7.113200314447827 L -2.9777895398741983 7.113200314447827 C -3.0154322630507036 7.091412851084652 -3.0618404566757906 7.0913685468169465 -3.099524710648036 7.1130840981684615 C -3.1372089646203065 7.134799649519976 -3.1604410602223885 7.174974170454844 -3.1604657407687933 7.218467475213355 C -3.157577136903364 7.297004581164493 -3.165257397626542 7.375573648362401 -3.1833002658806215 7.45206466710734 C -3.3203074165516115 7.288112776804427 -3.460054710235969 7.122562469743677 -3.598888622915897 6.958838924691877 C -3.6959353546411515 6.84466629913274 -3.795265538877608 6.729123602066899 -3.8932256516073442 6.614950976507762 C -3.963327643700656 6.532289995602947 -4.1597045596623925 6.372219974569041 -4.176602108245118 6.279511802615021 C -4.2094838244061625 6.0922686966980395 -3.8048560394245596 5.7390185932180735 -3.69707708089674 5.617310574372036 C -3.562353382736953 5.466374363382853 -3.42306277955481 5.320461747918278 -3.2801186523547674 5.179116037476065 C -3.262950925270724 5.2824013918301205 -3.2076145605929636 5.3754708004633995 -3.1250722268454885 5.439886314253132 C -2.9423960259508686 5.556570737574567 -2.5172171683686413 5.471854649409689 -2.308966299348776 5.473681411418639 C -2.305997811084249 5.473681411418639 -2.303257668070831 5.473681411418639 -2.300060834555172 5.473681411418639 C -2.1289272572838627 5.775728583427792 -1.9788520400836447 6.0892309054795 -1.8509057256055792 6.411952048263618 C -1.8456359079720972 6.425589482976388 -1.8384882363817923 6.438424549165432 -1.8296696172515805 6.450085705200373 C -1.9122048518390171 6.653159709790675 -2.02431722488733 6.842912017228617 -2.162368648130909 7.013185094458028 Z M -1.016075487517103 5.02680975498018 C -0.8955091949266727 4.817873850206965 -0.7043842197406658 4.595008885115533 -0.7256203280946636 4.355018026190224 C -0.7468564364486863 4.115027167264921 -0.9521388172040002 3.86316235528147 -1.0720200740410828 3.653998105257135 C -1.1919013308781654 3.444833855232795 -1.311325897213031 3.2349845694551056 -1.4312071540501377 3.0251352836774164 C -1.494002098107651 2.9148445273872925 -1.6723397392310488 2.4508469771149684 -1.789252507803579 2.395587426344343 C -1.9175825389320487 2.3355326253002358 -2.161455267126378 2.5599960071494974 -2.2753995474343824 2.6093185813910456 C -2.4434616522574295 2.6823890617488897 -2.6217992933808274 2.72714473096807 -2.7907747792083057 2.799073485070325 C -2.9126966852099194 2.849026364509648 -3.0291567638608843 2.9113883645757093 -3.138316251410364 2.9851748647317184 C -3.2954177841797136 3.0966073472774314 -3.2997563439509614 3.074686203170079 -3.2269142088442315 3.2349845694551056 C -3.135576108396921 3.43661342619254 -2.9663722773182846 3.626139984620699 -2.855853175777047 3.821603519577942 C -2.6174607336095796 4.241987126886682 -2.3991626735404967 4.674244687253569 -2.1724158391800508 5.101935342598088 C -1.9975033768234702 5.433492647221814 -1.7965595558393783 5.764136570841073 -1.640828094576726 6.107796173774075 C -1.4321205350546196 5.747010677007202 -1.2238696660347532 5.386681870742571 -1.0160754875171278 5.026809754980174 Z M -8.630247886055862 4.986849336034481 C -8.674318519521687 4.908526914900914 -8.717247426731925 4.829519458013993 -8.75880626243544 4.750512001127071 C -8.880630979223454 4.580240150459671 -8.935720684697538 4.37117553071804 -8.913624342693636 4.162979669999766 C -8.851238070827154 3.999274188899064 -8.740942667026538 3.8581820165047764 -8.59713782464371 3.7581235397670625 C -8.551747296072598 3.744088446911463 -8.517479909442264 3.706627093447561 -8.507534700476567 3.660168760136311 C -8.497589491510821 3.6137104268250555 -8.51351815428105 3.5655037416851973 -8.549185321908878 3.534116848420041 C -8.598051205648192 3.4925580127165197 -8.764286548462302 3.392771137977828 -8.776160501520456 3.3498422307675977 C -8.831648397542196 3.3306612296736633 -8.821829551744111 3.318330586113275 -8.747845690381768 3.314220371593147 C -8.683909020068665 3.297018362675568 -8.620505155341506 3.2805775045950516 -8.557634096200266 3.264897797351599 C -8.366509121014282 3.21671694936564 -8.174470764823793 3.173559696904289 -7.981519027628849 3.131544170698527 C -7.849763817733613 3.104599431066572 -7.527111977903502 2.9678206256467212 -7.402892161295147 3.0150880926282118 C -7.297168310027397 3.055276856825024 -7.291231333498319 3.1998194007828893 -7.240538687750068 3.303716490041708 C -7.059827452143214 3.636622633763187 -6.9227577365637 3.9914229109882866 -6.832714069252807 4.359356585961478 C -6.828603854732718 4.382191111073299 -6.823808604459229 4.402057147920594 -6.819470044687981 4.419868077507814 C -6.828105580550793 4.4164768583089415 -6.836953847775435 4.413654566176951 -6.845958093817709 4.411419303216438 C -6.916284232479578 4.383258116892441 -6.996400311911097 4.396069669572618 -7.054437308088682 4.444757709879692 C -7.08242499106294 4.466591112884057 -7.102348824693329 4.497119567640306 -7.111066930366035 4.53152890530464 C -7.146765157323227 4.591293539828827 -7.177761337859743 4.653743972535385 -7.2037751023200425 4.718315320719394 C -7.253097676561596 4.824267517238271 -7.301735215049778 4.929306332752672 -7.351514479793572 5.034801838769314 C -7.761165860299746 5.017447599684323 -8.170436665387381 4.9994083248459775 -8.579326895056504 4.980684014254284 C -8.596514448656873 4.9801572183456 -8.613682694211493 4.982235884847724 -8.630247886055862 4.986849336034475 Z M -5.1719590578696595 7.067074573721931 C -5.265580610828147 7.122562469743671 -5.597137915451862 7.056114001668252 -5.709712124253194 7.052917168152593 L -6.113883218732532 7.042184941350034 C -6.449550737876386 7.033279476556425 -6.786588328526962 7.024145666511688 -7.122712538173056 7.019350416238213 C -7.321734477712795 7.039557647911047 -7.515166640765942 6.945932947985791 -7.622788638122084 6.777304450052839 C -7.7079650972621945 6.647034277254184 -7.784253492194857 6.511164645879147 -7.851133889240334 6.370621557811193 C -8.003364056652517 6.09904293914787 -8.155594224064727 5.827844895903073 -8.307824391476885 5.557027428076802 C -8.34983991768264 5.4824346460448306 -8.392083789139503 5.407917979096562 -8.434556005847524 5.333477427232009 C -7.3220579423993195 5.382343310971323 -6.210092684537008 5.431437539961751 -5.098660232260689 5.480760114203299 C -5.0954633987450295 5.731787660265984 -5.092494910480504 5.9821301705753145 -5.08975476746706 6.23178764513129 C -5.0865579339514015 6.448258943191411 -4.985172642454899 6.956555472180687 -5.172644093623007 7.066846228470811 Z" fill="#2b2722" transform="matrix(1,0,0,1,0,0)" fill-rule="evenodd"></path></g></g><g><path d=" M 0.14645146870165396 4.10915892739934 C 0.31800890346644856 4.243057413069423 0.594174530160996 4.322559638936036 0.8996304505958742 4.322559638936036 C 1.5900445173322428 4.322559638936036 1.8076295565461287 3.9794447694064465 1.8076295565461287 3.640514227554047 C 1.8076295565461287 3.37271725621388 1.6528094324900946 2.950100160817679 1.2092706987079427 2.335003992270732 L 0.9205520889818248 2.5232987377442875 C 1.405934099535878 3.2095284768034658 1.4686990146937295 3.4564038097576826 1.4686990146937295 3.619592589168097 C 1.4686990146937295 3.8413619560591727 1.3138788906376955 3.9752604417292563 0.8996304505958742 3.9752604417292563 C 0.631833479255707 3.9752604417292563 0.42680142307339153 3.8957582158626445 0.3138245757892585 3.8204403176732225 M 2.113042571277286 1.029344608588767 C 2.703032773761092 1.0000543148484362 3.0921752477397724 0.7489946542170296 3.0921752477397724 0.3765894909471097 C 3.0921752477397724 0.18411041779636417 2.9750140727784493 -4.440892098500626e-16 2.753244705887373 -4.440892098500626e-16 C 2.531475338996297 -4.440892098500626e-16 2.380839542617453 0.1715574347647939 2.380839542617453 0.36403650791553943 C 2.380839542617453 0.5230409596487635 2.477079079192826 0.6360178069328963 2.6151618925400992 0.7113357051223184 C 2.485447734547206 0.7699162926029803 2.3097059721052213 0.8117595693748814 2.0753836221825748 0.8284968800836419 M 2.598424581831339 0.36403650791553943 C 2.598424581831339 0.28034995437173693 2.6611894969891905 0.21340071153669493 2.744876050532993 0.21340071153669493 C 2.8327469317539853 0.21340071153669493 2.8787745362030766 0.2887186097261174 2.8787745362030766 0.38914247397867996 C 2.8787745362030766 0.46027604449091175 2.849484242462746 0.5314096150031435 2.7825349996277042 0.5941745301609953 C 2.6737424800207608 0.548146925711904 2.598424581831339 0.4560917168137215 2.598424581831339 0.36403650791553943 M 2.397576853326213 1.828602273150794 C 2.5482126497050572 1.828602273150794 2.669558152343571 1.7449157196069915 2.719770084469852 1.6152015616140982 C 2.7699820165961335 1.6612291660631895 2.8494842424627453 1.6905194598035203 2.937355123683738 1.6905194598035203 C 3.154940162897624 1.6905194598035203 3.2553640271501862 1.5147776973615357 3.2553640271501862 1.3306672795651706 C 3.2553640271501862 1.2176904322810373 3.2135207503782857 1.0712389635793835 3.159124490574814 0.9624464439724405 L 2.970829745101259 1.021027031453102 C 3.00848869419597 1.1172665680284748 3.0335946602591104 1.2135061046038476 3.0335946602591104 1.3097456411792199 C 3.0335946602591104 1.4059851777545926 3.00848869419597 1.4729344205896342 2.9080648299434073 1.4729344205896342 C 2.8076409656908443 1.4729344205896342 2.786719327304894 1.4059851777545926 2.786719327304894 1.3264829518879804 L 2.786719327304894 1.0712389635793835 L 2.5858715987997685 1.1465568617688056 L 2.5858715987997685 1.272086692084509 C 2.5775029434453884 1.535699335747486 2.518922355964727 1.5984642509053377 2.4352358024209244 1.5984642509053377 C 2.3599179042315024 1.5984642509053377 2.3306276104911716 1.5482523187790562 2.3306276104911716 1.4436441268493034 C 2.3306276104911716 1.385063539368642 2.3389962658455516 1.3013769858248398 2.355733576554312 1.205137449249467 L 2.1465171926948066 1.2637180367301286 C 2.129779881986046 1.3557732456283111 2.121411226631666 1.418538160786163 2.121411226631666 1.4813030759440147 C 2.121411226631666 1.6486761830316192 2.1758074864351373 1.828602273150794 2.397576853326213 1.828602273150794 M 2.920617812974977 3.9752604417292563 C 2.65282084163481 3.9752604417292563 2.4477887854524947 3.8957582158626445 2.3348119381683614 3.8204403176732225 L 2.167438831080757 4.10915892739934 C 2.3389962658455516 4.243057413069423 2.6151618925400992 4.322559638936036 2.920617812974977 4.322559638936036 C 3.351603563725559 4.322559638936036 3.581741585971015 4.188661153265953 3.6905341055779584 4.0045507354695875 C 3.811879608216471 4.234688757715044 4.033648975107548 4.318375311258846 4.247049686644242 4.318375311258846 C 4.368395189282756 4.318375311258846 4.456266070503749 4.230504430037853 4.456266070503749 4.138449221139671 C 4.456266070503749 4.050578339918679 4.401869810700277 3.9752604417292563 4.284708635738954 3.9752604417292563 C 4.150810150068871 3.9752604417292563 3.9666997322725055 3.9417858203117357 3.8537228849883727 3.5693806570418154 C 3.7532990207358097 3.2388187705437965 3.5524512922306846 2.8329389858563556 3.2302580610870457 2.335003992270732 L 2.941539451360928 2.5232987377442875 C 3.238626716441426 2.966837471526439 3.4896863770728324 3.402007549954211 3.4896863770728324 3.619592589168097 C 3.4896863770728324 3.8413619560591727 3.3348662530167985 3.9752604417292563 2.920617812974977 3.9752604417292563 M 4.422717896451276 2.2221027407502985 L 5.3600072961418626 1.950121441732941 L 5.3600072961418626 1.7116147641331048 L 4.422717896451276 1.987780390827652 M 4.263713444718053 4.318375311258846 C 5.2093714997630185 4.318375311258846 5.615251284450459 3.962707458697686 6.03786837984666 3.761859730192561 C 6.155029554807983 4.238873085392234 6.481407113628812 4.318375311258846 6.929130175088154 4.318375311258846 C 7.050475677726668 4.318375311258846 7.13834655894766 4.230504430037853 7.13834655894766 4.138449221139671 C 7.13834655894766 4.050578339918679 7.088134626821379 3.9752604417292563 6.970973451860056 3.9752604417292563 C 6.586015305558565 3.9752604417292563 6.41445787079377 3.9166798542485948 6.309849678864017 3.665620193617188 C 6.3893519047306295 3.6488828829084277 6.468854130597242 3.6363298998768574 6.560909339495424 3.6363298998768574 L 6.531619045755094 3.3350583071191693 L 6.443748164534101 3.3350583071191693 C 6.00857808610633 3.3350583071191693 5.690569182639881 2.8245703305019756 4.958311839131611 2.8245703305019756 C 4.816044698107148 2.8245703305019756 4.665408901728304 2.849676296565116 4.51477310534946 2.8957039010142074 L 4.581722348184501 3.213712804480656 C 4.732358144563346 3.180238183063135 4.820229025784338 3.1676852000315647 4.958311839131611 3.1676852000315647 C 5.334901330078722 3.1676852000315647 5.661278888899551 3.293215030347268 5.878863928113436 3.4856941034980133 C 5.431140866654094 3.7953343516100815 4.878809613264999 3.9752604417292563 4.3013723938127635 3.9752604417292563 M 5.355822968464672 5.075738620830256 C 5.468799815748805 5.075738620830256 5.560855024646988 4.983683411932073 5.560855024646988 4.870706564647941 C 5.560855024646988 4.757729717363808 5.468799815748805 4.661490180788435 5.355822968464672 4.661490180788435 C 5.238661793503349 4.661490180788435 5.146606584605166 4.757729717363808 5.146606584605166 4.870706564647941 C 5.146606584605166 4.983683411932073 5.238661793503349 5.075738620830256 5.355822968464672 5.075738620830256 M 7.104972050838821 1.1591650092765895 L 8.042261450529407 0.8871837102592322 L 8.042261450529407 0.6486770326593958 L 7.104972050838821 0.9248426593539429 M 7.858151032733042 2.175999540537508 C 7.971127880017175 2.175999540537508 8.063183088915357 2.0839443316393256 8.063183088915357 1.9709674843551923 C 8.063183088915357 1.8579906370710595 7.971127880017175 1.7617511004956867 7.858151032733042 1.7617511004956867 C 7.740989857771719 1.7617511004956867 7.648934648873537 1.8579906370710595 7.648934648873537 1.9709674843551923 C 7.648934648873537 2.0839443316393256 7.740989857771719 2.175999540537508 7.858151032733042 2.175999540537508 M 7.2848981409579965 2.175999540537508 C 7.39787498824213 2.175999540537508 7.489930197140312 2.0839443316393256 7.489930197140312 1.9709674843551923 C 7.489930197140312 1.8579906370710595 7.39787498824213 1.7617511004956867 7.2848981409579965 1.7617511004956867 C 7.167736965996673 1.7617511004956867 7.075681757098491 1.8579906370710595 7.075681757098491 1.9709674843551923 C 7.075681757098491 2.0839443316393256 7.167736965996673 2.175999540537508 7.2848981409579965 2.175999540537508 M 6.945967599105598 4.318375311258846 C 7.653118976550727 4.318375311258846 7.946021913954034 4.10915892739934 7.946021913954034 3.548459018655865 C 7.946021913954034 3.2973993580244585 7.833045066669902 2.883150917982637 7.728436874740149 2.6111696189652798 L 7.389506332887749 2.736699449280983 C 7.510851835526263 3.054708352747432 7.628013010487586 3.406191877631401 7.628013010487586 3.6154082614909067 C 7.628013010487586 3.954338803343306 7.477377214108742 3.9752604417292563 6.987810875877499 3.9752604417292563" fill="#000000" fill-rule="nonzero"></path></g><g><path d=" M 0.4286931117715238 6.479395909070729 C 0.4655552583251262 6.479395909070729 0.4955910814428763 6.449360085952979 0.4955910814428763 6.412497939399377 C 0.4955910814428763 6.375635792845775 0.4655552583251262 6.344234705040854 0.4286931117715238 6.344234705040854 C 0.390465700530751 6.344234705040854 0.3604298774130009 6.375635792845775 0.3604298774130009 6.412497939399377 C 0.3604298774130009 6.449360085952979 0.390465700530751 6.479395909070729 0.4286931117715238 6.479395909070729 M 0.24165184962917108 6.479395909070729 C 0.27851399618277345 6.479395909070729 0.3085498193005235 6.449360085952979 0.3085498193005235 6.412497939399377 C 0.3085498193005235 6.375635792845775 0.27851399618277345 6.344234705040854 0.24165184962917108 6.344234705040854 C 0.20342443838839824 6.344234705040854 0.17338861527064817 6.375635792845775 0.17338861527064817 6.412497939399377 C 0.17338861527064817 6.449360085952979 0.20342443838839824 6.479395909070729 0.24165184962917108 6.479395909070729 M 0.6635186379648426 7.347704250111141 C 0.7031113138927859 7.347704250111141 0.7317818723233656 7.319033691680561 0.7317818723233656 7.288997868562811 C 0.7317818723233656 7.260327310132231 0.71539869607732 7.235752545763163 0.6771712848365472 7.235752545763163 C 0.5788722273602742 7.235752545763163 0.5228963751862854 7.2152735754556065 0.5160700517504332 7.086938694861583 L 0.4942258167557058 6.636401348095332 L 0.3836393770948987 6.636401348095332 L 0.3877351711564101 6.740161464320287 C 0.1952328502653755 6.771562552125207 0.04095794061511374 6.890340579909037 0.04095794061511374 7.036423901436276 C 0.04095794061511374 7.185237752337856 0.2279992027574665 7.253500986696379 0.42186678833567154 7.207081987332583 C 0.455998405514933 7.313572632931879 0.5447406101810127 7.347704250111141 0.6635186379648426 7.347704250111141 M 0.14881385090157992 7.018675460503061 C 0.14881385090157992 6.951777490831708 0.23619079088048925 6.87122687428865 0.3931962299050919 6.853478433355435 L 0.405483612089626 7.103321871107629 C 0.3030887605518417 7.122435576728015 0.14881385090157992 7.104687135794799 0.14881385090157992 7.018675460503061 M 0.6655978667535558 7.347704250111141 C 0.7420526892351015 7.347704250111141 0.7966632767219197 7.339512661988118 0.854004393583079 7.25623151607072 C 0.9755129507412498 7.332686338552266 1.053333037909966 7.340877926675288 1.1065783607096138 7.340877926675288 C 1.2021468888115459 7.340877926675288 1.3004459462878188 7.2849020745013 1.3004459462878188 7.1197050473536745 C 1.3004459462878188 6.9954659608211625 1.2035121534987163 6.852113168668264 1.080638331653375 6.852113168668264 C 1.002818244484659 6.852113168668264 0.9263634220031133 6.888975315221867 0.8471780701472267 7.0623639304925145 C 0.788471688598897 7.192064075773708 0.7543400714196355 7.235752545763163 0.6792505136252603 7.235752545763163 M 0.9209023632544315 7.134722958912549 C 0.9823392741771021 6.9954659608211625 1.023297214792216 6.964064873016242 1.0724467435303522 6.964064873016242 C 1.1379794485145343 6.964064873016242 1.2021468888115459 7.055537607056663 1.2021468888115459 7.134722958912549 C 1.2021468888115459 7.190698811086538 1.1721110656937959 7.228926222327311 1.0942909785250796 7.228926222327311 C 1.050602508535625 7.228926222327311 0.9850698035514429 7.2152735754556065 0.9058844516955564 7.16885457609181 C 0.9099802457570678 7.157932458594447 0.9154413045057497 7.147010341097083 0.9209023632544315 7.134722958912549 M 1.5100474074258856 7.340877926675288 L 1.6206338470866928 7.340877926675288 L 1.5933285533432837 6.366078940035582 L 1.4827421136824765 6.366078940035582 M 2.0049231915009234 7.235752545763163 C 1.9175462515220139 7.235752545763163 1.8506482818506613 7.209812516706925 1.813786135297059 7.185237752337856 L 1.7591755478102407 7.279441015752618 C 1.8151513999842295 7.323129485742072 1.9052588693374797 7.349069514798311 2.0049231915009234 7.349069514798311 C 2.14554545427948 7.349069514798311 2.2206350120738554 7.305381044808857 2.2561318939402875 7.245309398573356 C 2.2957245698682307 7.320398956367732 2.368083598288265 7.347704250111141 2.437712097333958 7.347704250111141 C 2.477304773261902 7.347704250111141 2.5059753316924813 7.319033691680561 2.5059753316924813 7.288997868562811 C 2.5059753316924813 7.260327310132231 2.4882268907592655 7.235752545763163 2.4499994795184925 7.235752545763163 C 2.4063110095290376 7.235752545763163 2.3462393632935377 7.2248304282658 2.3093772167399353 7.103321871107629 C 2.276610864247844 6.9954659608211625 2.2110781592636624 6.863035286165628 2.105952778351537 6.700568788392344 L 2.0117495149367755 6.762005699315014 C 2.1086833077258778 6.906723756155083 2.1905991889561056 7.04871128362081 2.1905991889561056 7.1197050473536745 C 2.1905991889561056 7.192064075773708 2.140084395530798 7.235752545763163 2.0049231915009234 7.235752545763163 M 2.804261667045897 6.813885757427491 C 2.8411238135994994 6.813885757427491 2.871159636717249 6.783849934309742 2.871159636717249 6.746987787756139 C 2.871159636717249 6.710125641202537 2.8411238135994994 6.6787245533976165 2.804261667045897 6.6787245533976165 C 2.766034255805124 6.6787245533976165 2.735998432687374 6.710125641202537 2.735998432687374 6.746987787756139 C 2.735998432687374 6.783849934309742 2.766034255805124 6.813885757427491 2.804261667045897 6.813885757427491 M 2.617220404903544 6.813885757427491 C 2.6540825514571464 6.813885757427491 2.6841183745748967 6.783849934309742 2.6841183745748967 6.746987787756139 C 2.6841183745748967 6.710125641202537 2.6540825514571464 6.6787245533976165 2.617220404903544 6.6787245533976165 C 2.5789929936627716 6.6787245533976165 2.5489571705450214 6.710125641202537 2.5489571705450214 6.746987787756139 C 2.5489571705450214 6.783849934309742 2.5789929936627716 6.813885757427491 2.617220404903544 6.813885757427491 M 2.4397359955713847 7.347704250111141 C 2.580358258349942 7.347704250111141 2.6486214927084646 7.332686338552266 2.7018668155081125 7.257596780757891 C 2.7223457858156697 7.31766842699339 2.771495314553806 7.347704250111141 2.9489797238859654 7.347704250111141 C 2.9885723998139087 7.347704250111141 3.0172429582444886 7.319033691680561 3.0172429582444886 7.288997868562811 C 3.0172429582444886 7.260327310132231 3.000859781998443 7.235752545763163 2.96263237075767 7.235752545763163 C 2.751016344246249 7.235752545763163 2.7578426676821013 7.194794605148049 2.7578426676821013 7.140184017661231 C 2.7578426676821013 7.096495547671776 2.775591108615317 7.024136519251742 2.786513226112681 6.974986990513606 L 2.680022580513385 6.954508020206049 C 2.6336035811495897 7.19615986983522 2.6349688458367604 7.235752545763163 2.4533886424430893 7.235752545763163 M 2.9510082885554283 7.347704250111141 C 3.0534031400932125 7.347704250111141 3.1216663744517357 7.3354168679266065 3.168085373815531 7.254866251383549 C 3.1981211969332812 7.332686338552266 3.2732107547276565 7.347704250111141 3.3305518715888156 7.347704250111141 C 3.4425035759367932 7.347704250111141 3.4943836340492704 7.334051603239436 3.5380721040387253 7.265788368880913 C 3.564012133094964 7.321764221054902 3.618622720581782 7.347704250111141 3.7182870427452257 7.347704250111141 C 3.8643703642724647 7.347704250111141 3.9531125689385442 7.265788368880913 3.9531125689385442 7.096495547671776 C 3.9531125689385442 7.0145796664415485 3.916250422384942 6.879418462411674 3.8821188052056805 6.790676257745594 L 3.7715323655448736 6.831634198360708 C 3.811125041472817 6.935394314585662 3.84935245271359 7.050076548307981 3.84935245271359 7.118339782666504 C 3.84935245271359 7.212543046081265 3.798837659288283 7.235752545763163 3.719652307432396 7.235752545763163 C 3.61179639714593 7.235752545763163 3.5954132208998844 7.202986193271072 3.5954132208998844 7.1633935173431285 C 3.5954132208998844 7.116974517979333 3.61179639714593 7.024136519251742 3.6199879852689527 6.974986990513606 L 3.516227869043998 6.955873284893219 C 3.475269928428884 7.223465163578629 3.454790958121327 7.235752545763163 3.346935047834861 7.235752545763163 C 3.2554623137944403 7.235752545763163 3.2267917553638608 7.208447252019754 3.2267917553638608 7.1633935173431285 C 3.2267917553638608 7.111513459230651 3.2459054609842473 7.040519695497788 3.256827578481611 6.994100696133992 L 3.1544327269438264 6.965430137703413 C 3.0970916100826673 7.22619569295297 3.0807084338366217 7.235752545763163 2.964660935427133 7.235752545763163 M 4.149023385115469 7.340877926675288 L 4.259609824776277 7.340877926675288 L 4.2323045310328675 6.366078940035582 L 4.12171809137206 6.366078940035582 M 4.6950965949593995 7.657619334098834 C 4.831623063676445 7.623487716919573 5.048700148936548 7.492422306951209 5.086927560177321 7.2876326038756405 C 5.115598118607901 7.323129485742072 5.160651853284525 7.347704250111141 5.230280352330219 7.347704250111141 C 5.2698730282581625 7.347704250111141 5.298543586688742 7.319033691680561 5.298543586688742 7.288997868562811 C 5.298543586688742 7.260327310132231 5.282160410442696 7.235752545763163 5.243932999201924 7.235752545763163 C 5.17293923546906 7.235752545763163 5.134711824228287 7.213908310768436 5.110137059859219 7.134722958912549 C 5.089658089551662 7.067824989241196 5.05416120768523 6.974986990513606 5.003646414259923 6.878053197724503 L 4.90398209209648 6.92856799114981 C 4.951766356147446 7.010483872380037 4.998185355511241 7.106052400481969 4.998185355511241 7.194794605148049 C 4.998185355511241 7.320398956367732 4.920365268342525 7.4651170132078 4.655503919031456 7.55385921787388 M 5.504010589042712 6.663706641838742 C 5.540872735596314 6.663706641838742 5.570908558714064 6.633670818720991 5.570908558714064 6.596808672167389 C 5.570908558714064 6.559946525613786 5.540872735596314 6.528545437808866 5.504010589042712 6.528545437808866 C 5.465783177801939 6.528545437808866 5.435747354684189 6.559946525613786 5.435747354684189 6.596808672167389 C 5.435747354684189 6.633670818720991 5.465783177801939 6.663706641838742 5.504010589042712 6.663706641838742 M 5.41117259031512 6.813885757427491 C 5.448034736868722 6.813885757427491 5.478070559986473 6.783849934309742 5.478070559986473 6.746987787756139 C 5.478070559986473 6.710125641202537 5.448034736868722 6.6787245533976165 5.41117259031512 6.6787245533976165 C 5.372945179074348 6.6787245533976165 5.342909355956597 6.710125641202537 5.342909355956597 6.746987787756139 C 5.342909355956597 6.783849934309742 5.372945179074348 6.813885757427491 5.41117259031512 6.813885757427491 M 5.596848587770302 6.813885757427491 C 5.633710734323905 6.813885757427491 5.663746557441655 6.783849934309742 5.663746557441655 6.746987787756139 C 5.663746557441655 6.710125641202537 5.633710734323905 6.6787245533976165 5.596848587770302 6.6787245533976165 C 5.55862117652953 6.6787245533976165 5.5285853534117795 6.710125641202537 5.5285853534117795 6.746987787756139 C 5.5285853534117795 6.783849934309742 5.55862117652953 6.813885757427491 5.596848587770302 6.813885757427491 M 5.23232291629579 7.347704250111141 C 5.372945179074348 7.347704250111141 5.441208413432871 7.332686338552266 5.4944537362325185 7.257596780757891 C 5.514932706540075 7.31766842699339 5.564082235278212 7.347704250111141 5.741566644610371 7.347704250111141 C 5.781159320538315 7.347704250111141 5.809829878968894 7.319033691680561 5.809829878968894 7.288997868562811 C 5.809829878968894 7.260327310132231 5.793446702722848 7.235752545763163 5.755219291482076 7.235752545763163 C 5.543603264970654 7.235752545763163 5.550429588406507 7.194794605148049 5.550429588406507 7.140184017661231 C 5.550429588406507 7.096495547671776 5.568178029339723 7.024136519251742 5.579100146837087 6.974986990513606 L 5.472609501237791 6.954508020206049 C 5.426190501873995 7.19615986983522 5.427555766561166 7.235752545763163 5.2459755631674945 7.235752545763163 M 5.743595209279834 7.347704250111141 L 5.867834295812346 7.347704250111141 C 6.187306232610233 7.347704250111141 6.222803114476665 7.2248304282658 6.222803114476665 7.144279811722742 C 6.222803114476665 7.003657548944185 6.105390351380006 6.876687933037332 5.892409060181414 6.703299317766684 C 5.979786000160324 6.643227671531184 6.071258734200744 6.595443407480218 6.319736907265767 6.476665379696389 L 6.273317907901972 6.375635792845775 C 6.039857646395824 6.493048555942434 5.882852207371221 6.562677054988127 5.810493178951186 6.6404971421568435 C 5.7913794733308 6.6609761124644 5.781822620520607 6.700568788392344 5.781822620520607 6.741526729007457 C 5.781822620520607 6.766101493376525 5.8965048542429255 6.8370952571093895 5.99889970578071 6.939490108647174 C 6.097198763256983 7.037789166123447 6.120408262938881 7.095130282984606 6.120408262938881 7.13745348828689 C 6.120408262938881 7.183872487650686 6.098564027944153 7.235752545763163 5.885582736745562 7.235752545763163 L 5.757247856151539 7.235752545763163 M 6.33951591276789 6.379731586907286 C 6.4146054705622655 6.36198314597407 6.522461380848732 6.330582058169149 6.589359350520084 6.306007293800081 L 6.567515115525357 6.236378794754388 C 6.541575086469118 6.2473009122517515 6.5101739986641975 6.256857765061945 6.476042381484936 6.266414617872138 C 6.441910764305675 6.256857765061945 6.396857029629049 6.224091412569853 6.396857029629049 6.177672413206058 C 6.396857029629049 6.146271325401138 6.421431793998118 6.128522884467921 6.463754999300402 6.128522884467921 C 6.482868704920788 6.128522884467921 6.499251881166834 6.1326186785294325 6.51700032210005 6.136714472590945 L 6.527922439597414 6.068451238232422 C 6.507443469289856 6.061624914796569 6.482868704920788 6.057529120735058 6.463754999300402 6.057529120735058 C 6.390030706193198 6.057529120735058 6.323132736521845 6.099852326037342 6.323132736521845 6.181768207267569 C 6.323132736521845 6.226821941944195 6.351803294952425 6.267779882559308 6.387300176818856 6.290989382241206 C 6.36818647119847 6.295085176302718 6.349072765578083 6.299180970364229 6.323132736521845 6.306007293800081 M 6.42962338212114 7.340877926675288 L 6.540209821781947 7.340877926675288 L 6.51700032210005 6.461647468137514 L 6.406413882439242 6.461647468137514 M 7.075373580158327 7.877426948733278 L 7.183229490444793 7.85148691967704 C 7.14500207920402 7.709499392211312 7.095852550465883 7.478769660079505 7.095852550465883 7.37500954385455 C 7.095852550465883 7.31493789761905 7.105409403276077 7.228926222327311 7.151828402639873 7.159297723281617 C 7.225552695747077 7.291728397937152 7.348426517592419 7.366817955731527 7.450821369130203 7.365452691044356 C 7.506797221304192 7.365452691044356 7.558677279416669 7.340877926675288 7.592808896595931 7.288997868562811 C 7.628305778462362 7.3258600151164135 7.673359513138988 7.347704250111141 7.737526953435999 7.347704250111141 C 7.777119629363942 7.347704250111141 7.805790187794522 7.319033691680561 7.805790187794522 7.288997868562811 C 7.805790187794522 7.260327310132231 7.789407011548477 7.235752545763163 7.751179600307704 7.235752545763163 C 7.67882057188767 7.235752545763163 7.640593160646897 7.205716722645413 7.5887131025344186 7.04871128362081 C 7.53273725036043 6.879418462411674 7.4931445744324865 6.8466521099195825 7.426246604761134 6.8466521099195825 C 7.292450665418429 6.8466521099195825 6.983900846117906 7.039154430810617 6.983900846117906 7.37500954385455 C 6.983900846117906 7.452829631023266 7.016667198609997 7.668541451596198 7.075373580158327 7.877426948733278 M 7.461743486627566 7.253500986696379 C 7.394845516956214 7.254866251383549 7.2869896066697475 7.194794605148049 7.225552695747077 7.0719207833027085 C 7.282893812608236 7.003657548944185 7.366174958525634 6.968160667077753 7.407132899140748 6.968160667077753 C 7.446725575068691 6.968160667077753 7.476761398186442 7.035058636749106 7.519084603488726 7.1674893114046405 C 7.536833044421941 7.2248304282658 7.509527750678533 7.253500986696379 7.461743486627566 7.253500986696379 M 7.739590849662307 7.347704250111141 C 7.98533849335299 7.347704250111141 8.019470110532252 7.242578869199016 8.011278522409228 7.04871128362081 L 7.983973228665819 6.366078940035582 L 7.873386789005012 6.366078940035582 L 7.899326818061251 7.060998665805345 C 7.904787876809933 7.198890399209561 7.906153141497104 7.235752545763163 7.751878231846842 7.235752545763163 M 8.493912921986945 7.347704250111141 C 8.533505597914889 7.347704250111141 8.562176156345469 7.319033691680561 8.562176156345469 7.288997868562811 C 8.562176156345469 7.260327310132231 8.545792980099423 7.235752545763163 8.50756556885865 7.235752545763163 C 8.350560129834047 7.235752545763163 8.339638012336684 7.202986193271072 8.334176953588003 7.069190253928367 L 8.306871659844592 6.366078940035582 L 8.194919955496616 6.366078940035582 L 8.222225249240024 7.112878723917822 C 8.227686307988707 7.276710486378277 8.274105307352501 7.347704250111141 8.493912921986945 7.347704250111141 M 8.495982151278438 7.347704250111141 C 8.779957206209893 7.347704250111141 8.958806880229224 7.2971894566858335 9.141752348310066 7.222099898891458 L 9.103524937069292 7.122435576728015 C 8.998399556157167 7.170219840778981 8.97928585053678 7.174315634840492 8.935597380547327 7.187968281712197 C 8.85641202869144 7.190698811086538 8.71442450122571 7.121070312040844 8.71442450122571 7.002292284257015 C 8.71442450122571 6.910819550216594 8.784053000271404 6.853478433355435 8.883717322434848 6.853478433355435 C 8.916483674926939 6.853478433355435 8.958806880229224 6.858939492104117 8.995669026782826 6.86849634491431 L 9.018878526464723 6.763370964002185 C 8.975190056475268 6.74971831713048 8.926040527737133 6.741526729007457 8.883717322434848 6.741526729007457 C 8.719885559974394 6.741526729007457 8.602472796877734 6.848017374606753 8.602472796877734 7.002292284257015 C 8.602472796877734 7.1292619001638675 8.692580266230983 7.2016209285839015 8.741729794969121 7.228926222327311 C 8.723981354035905 7.230291487014481 8.681658148733622 7.235752545763163 8.509634798150143 7.235752545763163 M 9.603199146543869 7.654888804724494 C 9.84758152554738 7.627583510981085 9.99639537644896 7.52382339475613 10.042814375812755 7.347704250111141 L 10.168418727032437 7.347704250111141 C 10.20801140296038 7.347704250111141 10.23668196139096 7.319033691680561 10.23668196139096 7.288997868562811 C 10.23668196139096 7.260327310132231 10.220298785144914 7.235752545763163 10.182071373904142 7.235752545763163 L 10.059197552058802 7.235752545763163 C 10.059197552058802 7.228926222327311 10.059197552058802 7.223465163578629 10.059197552058802 7.216638840142776 C 10.059197552058802 6.990004902072481 9.966359553331209 6.880783727098844 9.840755202111527 6.880783727098844 C 9.711055056830334 6.880783727098844 9.611390734666891 7.024136519251742 9.611390734666891 7.175680899527663 C 9.611390734666891 7.298554721373004 9.717881380266187 7.347704250111141 9.842120466798699 7.347704250111141 L 9.929497406777607 7.347704250111141 C 9.878982613352301 7.477404395392334 9.747917203383937 7.521092865381789 9.5786243821748 7.542937100376516 M 9.894000524911176 7.235752545763163 C 9.777953026501686 7.235752545763163 9.720611909640526 7.218004104829947 9.720611909640526 7.153836664532935 C 9.720611909640526 7.066459724554027 9.772491967753005 6.992735431446822 9.829833084614163 6.992735431446822 C 9.902192113034198 6.992735431446822 9.952706906459506 7.084208165487242 9.952706906459506 7.208447252019754 C 9.952706906459506 7.218004104829947 9.952706906459506 7.22756095764014 9.951341641772334 7.235752545763163 M 10.170445958435604 7.347704250111141 C 10.478995777736127 7.347704250111141 10.611426452391662 7.231656751701652 10.749318185795879 7.16612404671747 C 10.787545597036651 7.321764221054902 10.894036242635947 7.347704250111141 11.040119564163186 7.347704250111141 C 11.079712240091128 7.347704250111141 11.108382798521708 7.319033691680561 11.108382798521708 7.288997868562811 C 11.108382798521708 7.260327310132231 11.091999622275663 7.235752545763163 11.05377221103489 7.235752545763163 C 10.928167859815208 7.235752545763163 10.87219200764122 7.216638840142776 10.838060390461958 7.134722958912549 C 10.864000419518197 7.1292619001638675 10.889940448574436 7.125166106102356 10.919976271692185 7.125166106102356 L 10.910419418881991 7.026867048626083 L 10.881748860451413 7.026867048626083 C 10.739761332985685 7.026867048626083 10.63600121676073 6.860304756791287 10.3970798965059 6.860304756791287 C 10.350660897142104 6.860304756791287 10.301511368403968 6.86849634491431 10.25236183966583 6.883514256473185 L 10.274206074660558 6.98727437269814 C 10.323355603398696 6.976352255200776 10.352026161829274 6.972256461139264 10.3970798965059 6.972256461139264 C 10.51995371835124 6.972256461139264 10.626444363950537 7.013214401754379 10.6974381276834 7.07601657736422 C 10.551354806156162 7.1770461642148335 10.371139867449662 7.235752545763163 10.182733340620137 7.235752545763163 M 11.216954006176014 6.648688730279866 C 11.253816152729616 6.648688730279866 11.283851975847366 6.618652907162116 11.283851975847366 6.581790760608514 C 11.283851975847366 6.544928614054911 11.253816152729616 6.513527526249991 11.216954006176014 6.513527526249991 C 11.17872659493524 6.513527526249991 11.14869077181749 6.544928614054911 11.14869077181749 6.581790760608514 C 11.14869077181749 6.618652907162116 11.17872659493524 6.648688730279866 11.216954006176014 6.648688730279866 M 11.042200126218194 7.347704250111141 C 11.245624564606592 7.347704250111141 11.341193092708524 7.279441015752618 11.341193092708524 7.096495547671776 C 11.341193092708524 7.0145796664415485 11.304330946154922 6.879418462411674 11.27019932897566 6.790676257745594 L 11.159612889314854 6.831634198360708 C 11.199205565242798 6.935394314585662 11.23743297648357 7.050076548307981 11.23743297648357 7.118339782666504 C 11.23743297648357 7.219369369517118 11.188283447745434 7.235752545763163 11.0558527730899 7.235752545763163" fill="#000000" fill-rule="nonzero"></path></g></g><defs><clipPath id="SvgjsClipPath115872"><path d=" M -9.21504007416975 -0.477909213727993 h 8.81504007416975 v 8.296696354131274 h -8.81504007416975 Z"></path></clipPath><clipPath id="SvgjsClipPath11587030b7a29e-4c07-4a1c-a367-fecef045ccca"><path d=" M -9.21504007416975 -0.477909213727993 L -0.40000000000000036 -0.477909213727993 L -0.40000000000000036 7.818787140403281 L -9.21504007416975 7.818787140403281 Z"></path></clipPath></defs></svg>