<svg xmlns="http://www.w3.org/2000/svg" version="1.1" xmlns:xlink="http://www.w3.org/1999/xlink" xmlns:svgjs="http://svgjs.dev/svgjs" viewBox="0 0 14.606044509482867 7.406067015242359"><g transform="matrix(0.801486871462627,0,0,0.801486871462627,7.397716178326702,2.341315638057989)"><g transform="matrix(1,0,0,1,0,0)" clip-path="url(#SvgjsClipPath69538)"><g clip-path="url(#SvgjsClipPath6953665036cb5-c7c7-48d3-86fd-9896d8ddecef)"><path d=" M -3.1358577028889143 -1.0855052707942388 L -3.469806967700483 -0.5071981212414313 L -3.0955546038601867 0.13947454362666956 L -3.0955546038601867 0.13947454362666956 L -3.0955546038601867 0.13947454362666956 C -3.0805851530104484 0.16588790435524658 -3.084093254522639 0.198900710376678 -3.10427934581471 0.22157827201960845 C -3.139291989359776 0.2590310895521497 -3.151697737522075 0.31230137216104836 -3.1368343531077088 0.3613694733357413 C -3.123372652612603 0.41100617706930986 -3.0845824783482754 0.44977156527979045 -3.034937180280622 0.4632015361482378 L -2.0903861986815944 0.7286550656153357 C -2.0527804315886398 0.740209451955675 -2.012039788196927 0.7352883986307768 -1.9782667535645135 0.7151121825814446 C -1.943540421656782 0.6963642716134686 -1.9182683232322244 0.6639120629823034 -1.9085990379575 0.62565102254029 L -1.6473776594384884 -0.32365299012351356 C -1.6309514887128786 -0.38054732152412585 -1.6507730431560717 -0.44171318458483944 -1.6974472606551174 -0.478159054736082 C -1.7432565413377894 -0.5155897985060075 -1.807211112850525 -0.5214389877620103 -1.8590503168575552 -0.49293902804709677 C -1.892555667684661 -0.4749765205233387 -1.9342683412078445 -0.4867792783870416 -1.953394727992663 -0.5196341340273524 L -2.198403712879764 -0.9433701089530123 C -2.2228841493273395 -0.9865342561858592 -2.258326225460676 -1.0224704550536274 -2.301147315896463 -1.0475461322906026 L -2.301147315896463 -1.0479367923781204 C -2.344272902298875 -1.0723357912266518 -2.393085293721115 -1.084892683451706 -2.4426313775918294 -1.0843332905316898 Z" fill="#73ee2a" transform="matrix(1,0,0,1,0,0)" fill-rule="evenodd"></path></g><g clip-path="url(#SvgjsClipPath6953665036cb5-c7c7-48d3-86fd-9896d8ddecef)"><path d=" M -3.9233633293065235 -0.0031814983312459244 L -3.9212146988251844 -0.007088099206406406 L -3.6139605399938777 -0.5391671384031554 L -3.613504769891774 -0.5398182385490155 L -3.6104445992062306 -0.5454828098179975 L -3.6099888291041293 -0.5454828098179975 L -3.2981118592372116 -1.0858959308817566 L -4.459869849495117 -1.087002801129718 C -4.509759502324717 -1.0876018101119103 -4.55890875002418 -1.0749043592887735 -4.602265451394691 -1.0502156428886351 C -4.645007206151259 -1.0251030652740247 -4.680377317296324 -0.9891715237933234 -4.704813724367627 -0.9460396195510404 L -5.224000980676353 -0.04674009808927626 L -5.224000980676353 -0.04674009808927626 C -5.261214535027334 0.01818499435836074 -5.271187954592019 0.0952097604800104 -5.251737846889991 0.1674718498986454 C -5.232430817237985 0.23966347108935926 -5.18530147800363 0.30126172818106256 -5.120671387528386 0.3387762982744009 L -4.615678114399402 0.6310551537509297 C -4.583828513253997 0.6499520008007886 -4.548557150110154 0.6623655734003473 -4.511892751149329 0.6675818719336657 C -4.474802342113259 0.6720253455919716 -4.437200936312317 0.6691720624458972 -4.401205726353139 0.6591826800520766 C -4.365133253471432 0.6501206990387189 -4.331254167080956 0.6338897380424962 -4.301587404036569 0.6114570393605387 C -4.272453088333075 0.5887478790397127 -4.248110133310064 0.5604879212539107 -4.229966387991975 0.5283115507342306 L -4.229966387991975 0.5283115507342306 Z" fill="#ffffff" transform="matrix(1,0,0,1,0,0)" fill-rule="evenodd"></path></g><g clip-path="url(#SvgjsClipPath6953665036cb5-c7c7-48d3-86fd-9896d8ddecef)"><path d=" M -1.102341727339125 3.5320318536299347 L -1.4360305520923493 2.953854924106298 L -2.1769174080663865 2.954375804222991 L -2.1834284095249883 2.954766464310505 C -2.213939438150672 2.954808428140063 -2.2409759610487106 2.9351167834197733 -2.2502963945048062 2.9060641734001766 C -2.2653836868401758 2.857159251855743 -2.3053328094304932 2.8199626758871066 -2.35518862800284 2.8083991515211832 C -2.404704223475661 2.79544334967903 -2.4573775779362244 2.8096894356690725 -2.493612519012663 2.8458374099081345 L -3.195498476249686 3.530404103265284 C -3.224316006853561 3.557327965245779 -3.2404592918983317 3.595145324062223 -3.2399686162119212 3.634580126602879 C -3.2412599667482613 3.6739435623855616 -3.225894215198824 3.712026986610394 -3.1976471067310253 3.7394723601009083 L -2.505918311769415 4.440381667119148 C -2.464909150817806 4.4830606192939735 -2.402068972248512 4.496515325287894 -2.34718009620876 4.474369094733036 C -2.291748711476716 4.453439077320701 -2.2546608044909977 4.400850591685186 -2.253551895234101 4.341609774992198 C -2.2522842627549453 4.30362680647332 -2.2210415194452446 4.273537996434528 -2.1830377494374655 4.273700029779014 L -1.6937359898237156 4.273309369691492 C -1.6440082767818867 4.273696220091974 -1.5950548438917709 4.260986292103074 -1.5517961580262458 4.236457101435817 C -1.5092846226235679 4.211158260450142 -1.4740631822048256 4.175263798876902 -1.4495734351262337 4.132281078098222 Z" fill="#73ee2a" transform="matrix(1,0,0,1,0,0)" fill-rule="evenodd"></path></g><g clip-path="url(#SvgjsClipPath6953665036cb5-c7c7-48d3-86fd-9896d8ddecef)"><path d=" M -1.3327009589443763 2.852087971308389 L -1.02101931912122 3.3913942221241866 L -0.4393264488099424 2.3859002668726688 C -0.4139668382911621 2.3431181269434593 -0.4004810564032244 2.294344549115417 -0.4002604400583474 2.2446115352210656 C -0.4007209789732462 2.1948503145675615 -0.41418864760738483 2.146074907997596 -0.43932644880994687 2.1031274735256904 L -0.9566255146956726 1.20760433290992 L -0.9587741451770118 1.2042186121514482 C -0.9960814954206647 1.1393662737993422 -1.0577939058937638 1.092144087365892 -1.1301437035673505 1.073087042775256 C -1.2023263840808003 1.0534209809160573 -1.2793662958247252 1.0632588535011749 -1.344290541540687 1.1004332489013757 L -1.8496744747571805 1.3918005641737023 C -1.8820146675209362 1.4097892271398393 -1.9103672757708026 1.4341547498545673 -1.9330152934272515 1.463421580218296 L -1.9330152934272515 1.463421580218296 L -1.9334710635293524 1.463421580218296 C -1.955806215993526 1.4932397727049231 -1.972126494153117 1.5271187241148083 -1.981522254293818 1.5631701225640455 C -1.9914392956133504 1.5989338497551295 -1.9942703983186467 1.6362911346711613 -1.9898563361608197 1.673140937199789 C -1.9848845085186033 1.7087292737943236 -1.9730782332637604 1.7430205339446352 -1.955087588371903 1.7741265698226667 L -1.9534598380072552 1.7770565204790372 L -1.3349146994403034 2.847855820360303 L -1.3349146994403034 2.847855820360303 L -1.3331567290464816 2.8514368711625333 Z" fill="#ffffff" transform="matrix(1,0,0,1,0,0)" fill-rule="evenodd"></path></g><g clip-path="url(#SvgjsClipPath6953665036cb5-c7c7-48d3-86fd-9896d8ddecef)"><path d=" M -6.119133461204615 2.984131080888784 L -5.450844271493963 2.984131080888784 L -5.08023806847048 2.341104576837497 L -5.078154548003729 2.3369375359039983 C -5.062816104209839 2.310605800174287 -5.03229806166374 2.297106425072136 -5.002496711054803 2.3034709884067865 C -4.952603334945314 2.3149153331829377 -4.900389821908614 2.298941222781212 -4.865440130351283 2.261540139013415 C -4.829310274407149 2.2252681671555457 -4.815285679796064 2.1724711534603753 -4.828652972110195 2.123051137989007 L -5.070406456267996 1.1724449250334787 C -5.079476069538492 1.1339262969630304 -5.104144754075881 1.100908937161559 -5.1385115315249426 1.0812909046130907 C -5.172143136880534 1.0608243081019402 -5.212715928559033 1.055102202252915 -5.2506960866566175 1.0654691710686937 L -6.204232250268512 1.314319646816363 C -6.261728009826263 1.328723653250235 -6.3047237071215605 1.3765882461649497 -6.312900864612535 1.4352940539171448 C -6.322377769730384 1.4936952166820983 -6.295290049396062 1.5519725121442258 -6.244535349297242 1.5823775768669055 C -6.212123540919853 1.6023613131093266 -6.201406282799239 1.6444524800830345 -6.220314423871247 1.6775033081770467 L -6.4649327486708295 2.1015648331756323 C -6.4900257554827165 2.144293869757625 -6.503494327292042 2.192848071130246 -6.503998757422432 2.2423977947251386 L -6.503998757422432 2.2423977947251386 C -6.503642967211816 2.2920710160211666 -6.490165948488207 2.340767977009148 -6.4649327486708295 2.3835563063475793 Z" fill="#73ee2a" transform="matrix(1,0,0,1,0,0)" fill-rule="evenodd"></path></g><g clip-path="url(#SvgjsClipPath6953665036cb5-c7c7-48d3-86fd-9896d8ddecef)"><path d=" M -4.985568107262441 3.125159372482049 L -4.990190918298049 3.1255500325695627 L -6.037745942972119 3.1255500325695627 L -5.457680823025495 4.131955528025288 C -5.433474634208614 4.175323558147765 -5.3980853949688 4.211409790028265 -5.355197660067137 4.236457101435808 C -5.311938473179768 4.26104338777853 -5.262948545954996 4.273756958988631 -5.213192718255082 4.273309369691483 L -5.213192718255082 4.273309369691483 L -4.174948425666809 4.273700029779 L -4.174948425666809 4.273309369691483 C -4.10002874494765 4.273373445147028 -4.028169001329484 4.243593942656425 -3.97525601093156 4.1905545411526886 C -3.9224867734436892 4.137705731995927 -3.8927615419683046 4.066131119514237 -3.8925662924073485 3.9914481165487157 L -3.8919151922614885 3.407932165829032 C -3.8915974509357825 3.370718199824843 -3.8985649179752593 3.3338016839870805 -3.912424846856073 3.299263551485013 C -3.9268214351012136 3.265028445459869 -3.947943639653863 3.2340314995754804 -3.974539800771116 3.2081095310646246 C -4.0006581360006965 3.1817812868238313 -4.031607641495876 3.1607356230871098 -4.065693821191509 3.1461247971787483 L -4.065693821191509 3.1461247971787483 C -4.100235449854111 3.1322975093097245 -4.13715832881213 3.125395209588393 -4.174362435535532 3.1258104726279177 L -4.174362435535532 3.1254198125404047 Z" fill="#ffffff" transform="matrix(1,0,0,1,0,0)" fill-rule="evenodd"></path></g></g><g><path d=" M 0.07282531603019347 1.72077951716952 C 0.15813497195127724 1.7873626632542683 0.29546271075107067 1.8268964062420876 0.4473555127569027 1.8268964062420876 C 0.7906748597563863 1.8268964062420876 0.8988724721441023 1.65627709439992 0.8988724721441023 1.487738505872901 C 0.8988724721441023 1.3545722137034044 0.8218857094836121 1.1444191588734174 0.6013290380778832 0.8385528315466049 L 0.4577591293326447 0.9321853807282822 C 0.6991230338898573 1.2734240044126173 0.7303338836170831 1.396186680006372 0.7303338836170831 1.477334889297159 C 0.7303338836170831 1.5876132250000234 0.6533471209565929 1.6541963710847718 0.4473555127569027 1.6541963710847718 C 0.3141892205874061 1.6541963710847718 0.21223377814513525 1.6146626280969523 0.15605424863612885 1.5772096084242815 M 1.188071677407922 0.5867365434609515 C 1.2629777167532639 0.5867365434609515 1.323318692892567 0.5451220771579837 1.3482873726743478 0.48061965438838383 C 1.3732560524561284 0.503507610855016 1.4127897954439477 0.5180726740610548 1.4564849850620636 0.5180726740610548 C 1.5646825974497798 0.5180726740610548 1.6146199570133408 0.43068229482482256 1.6146199570133408 0.3391304689582937 C 1.6146199570133408 0.2829509394492873 1.5938127238618571 0.2101256234190938 1.566763320764928 0.1560268172252357 L 1.473130771583251 0.18515694363731328 C 1.4918572814195863 0.23301357988572602 1.5043416213104766 0.280870216134139 1.5043416213104766 0.3287268523825517 C 1.5043416213104766 0.3765834886309647 1.4918572814195863 0.40987506167333865 1.441919921856025 0.40987506167333865 C 1.3919825622924638 0.40987506167333865 1.3815789457167218 0.3765834886309647 1.3815789457167218 0.3370497456431454 L 1.3815789457167218 0.2101256234190938 L 1.2817042265895995 0.2475786430917648 L 1.2817042265895995 0.31000034254621633 C 1.2775427799593027 0.4410859114005645 1.2484126535472253 0.4722967611277904 1.2067981872442575 0.4722967611277904 C 1.1693451675715867 0.4722967611277904 1.154780104365548 0.44732808134600965 1.154780104365548 0.3953099984673001 C 1.154780104365548 0.36617987205522273 1.1589415509958447 0.3245654057522549 1.1672644442564382 0.27670876950384216 L 1.063228278499019 0.3058388959159195 C 1.0549053852384254 0.35161480884918395 1.0507439386081288 0.3828256585764098 1.0507439386081288 0.4140365083036355 C 1.0507439386081288 0.4972654409095709 1.0777933417050576 0.5867365434609515 1.188071677407922 0.5867365434609515 M 1.4481620918014702 1.6541963710847718 C 1.3149957996319737 1.6541963710847718 1.2130403571897028 1.6146626280969523 1.1568608276806964 1.5772096084242815 L 1.073631895074761 1.72077951716952 C 1.1589415509958447 1.7873626632542683 1.2962692897956383 1.8268964062420876 1.4481620918014702 1.8268964062420876 C 1.6624765932617538 1.8268964062420876 1.776916375594915 1.7603132601573392 1.8310151817887732 1.6687614342908104 C 1.8913561579280762 1.7832012166239715 2.0016344936309407 1.8248156829269393 2.1077513827035084 1.8248156829269393 C 2.168092358842811 1.8248156829269393 2.2117875484609275 1.7811204933088232 2.2117875484609275 1.7353445803755587 C 2.2117875484609275 1.6916493907574426 2.1847381453639985 1.6541963710847718 2.1264778925398438 1.6541963710847718 C 2.0598947464550954 1.6541963710847718 1.9683429205885665 1.6375505845635847 1.91216339107956 1.4523662095153784 C 1.8622260315159989 1.287989067618656 1.7623513123888763 1.0861589060492627 1.6021356171224506 0.8385528315466049 L 1.4585657083772121 0.9321853807282822 C 1.6062970637527476 1.1527420521340108 1.7311404626616507 1.369137276909443 1.7311404626616507 1.477334889297159 C 1.7311404626616507 1.5876132250000234 1.6541537000011604 1.6541963710847718 1.4481620918014702 1.6541963710847718 M 2.195105186725216 0.782410893230304 L 2.6611872093184545 0.647163877745659 L 2.6611872093184545 0.528562648782201 L 2.195105186725216 0.6658903875819944 M 2.1160377007495774 1.8248156829269393 C 2.5862811699731125 1.8248156829269393 2.7881113315425057 1.6479542011393264 2.9982643863724925 1.5480794820122041 C 3.056524639196647 1.78528193993912 3.2188210577782215 1.8248156829269393 3.4414584524990985 1.8248156829269393 C 3.5017994286384018 1.8248156829269393 3.5454946182565177 1.7811204933088232 3.5454946182565177 1.7353445803755587 C 3.5454946182565177 1.6916493907574426 3.520525938474737 1.6541963710847718 3.4622656856505825 1.6541963710847718 C 3.270839140656931 1.6541963710847718 3.1855294847358473 1.6250662446726942 3.1335114018571377 1.5002228457637912 C 3.173045144844957 1.4918999525031977 3.2125788878327763 1.4856577825577526 3.258354800766041 1.4856577825577526 L 3.243789737560002 1.3358457038670688 L 3.2000945479418856 1.3358457038670688 C 2.983699323166454 1.3358457038670688 2.825564351215177 1.0819974594189659 2.4614377710642095 1.0819974594189659 C 2.390693178349164 1.0819974594189659 2.3157871390038225 1.0944817993098561 2.2408810996584805 1.1173697557764886 L 2.2741726727008547 1.2755047277277658 C 2.3490787120461967 1.2588589412065785 2.3927739016643126 1.2526167712611334 2.4614377710642095 1.2526167712611334 C 2.648702869427564 1.2526167712611334 2.810999288009138 1.315038470715585 2.919196900396854 1.4107517432124106 C 2.696559505675977 1.5647252685333912 2.42190402807639 1.6541963710847718 2.134764210585913 1.6541963710847718 M 2.659106486003306 2.2014266029687968 C 2.715286015512312 2.2014266029687968 2.7610619284455766 2.1556506900355323 2.7610619284455766 2.099471160526526 C 2.7610619284455766 2.0432916310175195 2.715286015512312 1.9954349947691068 2.659106486003306 1.9954349947691068 C 2.6008462331791513 1.9954349947691068 2.5550703202458864 2.0432916310175195 2.5550703202458864 2.099471160526526 C 2.5550703202458864 2.1556506900355323 2.6008462331791513 2.2014266029687968 2.659106486003306 2.2014266029687968 M 3.5288986146662107 0.25384824444810317 L 3.994980637259449 0.11860122896345815 L 3.994980637259449 2.220446049250313e-16 L 3.5288986146662107 0.13732773879979354 M 3.90342881139292 0.7594853455709663 C 3.9596083409019265 0.7594853455709663 4.0053842538351905 0.7137094326377018 4.0053842538351905 0.6575299031286954 C 4.0053842538351905 0.601350373619689 3.9596083409019265 0.553493737371276 3.90342881139292 0.553493737371276 C 3.845168558568765 0.553493737371276 3.7993926456355007 0.601350373619689 3.7993926456355007 0.6575299031286954 C 3.7993926456355007 0.7137094326377018 3.845168558568765 0.7594853455709663 3.90342881139292 0.7594853455709663 M 3.618369717217591 0.7594853455709663 C 3.6745492467265977 0.7594853455709663 3.720325159659862 0.7137094326377018 3.720325159659862 0.6575299031286954 C 3.720325159659862 0.601350373619689 3.6745492467265977 0.553493737371276 3.618369717217591 0.553493737371276 C 3.5601094643934363 0.553493737371276 3.514333551460172 0.601350373619689 3.514333551460172 0.6575299031286954 C 3.514333551460172 0.7137094326377018 3.5601094643934363 0.7594853455709663 3.618369717217591 0.7594853455709663 M 3.449831128690572 1.8248156829269393 C 3.8014733689506492 1.8248156829269393 3.947124001011036 1.72077951716952 3.947124001011036 1.4419625929396365 C 3.947124001011036 1.3171191940307334 3.8909444715020296 1.1111275858310432 3.83892638862332 0.9758805703463982 L 3.670387800096301 1.03830226980085 C 3.730728776235604 1.1964372417521272 3.788989029059759 1.3712180002245913 3.788989029059759 1.4752541659820106 C 3.788989029059759 1.6437927545090298 3.714082989714417 1.6541963710847718 3.470638361842056 1.6541963710847718" fill="#000000" fill-rule="nonzero"></path></g><g><path d=" M 0.23550000000000001 2.9247292259808377 C 0.25575000000000003 2.9247292259808377 0.27225 2.908229225980838 0.27225 2.887979225980838 C 0.27225 2.867729225980838 0.25575000000000003 2.850479225980838 0.23550000000000001 2.850479225980838 C 0.2145 2.850479225980838 0.198 2.867729225980838 0.198 2.887979225980838 C 0.198 2.908229225980838 0.2145 2.9247292259808377 0.23550000000000001 2.9247292259808377 M 0.13275 2.9247292259808377 C 0.153 2.9247292259808377 0.1695 2.908229225980838 0.1695 2.887979225980838 C 0.1695 2.867729225980838 0.153 2.850479225980838 0.13275 2.850479225980838 C 0.11175 2.850479225980838 0.09525 2.867729225980838 0.09525 2.887979225980838 C 0.09525 2.908229225980838 0.11175 2.9247292259808377 0.13275 2.9247292259808377 M 0.3645 3.401729225980838 C 0.38625 3.401729225980838 0.402 3.385979225980838 0.402 3.3694792259808377 C 0.402 3.353729225980838 0.393 3.340229225980838 0.372 3.340229225980838 C 0.318 3.340229225980838 0.28725 3.328979225980838 0.28350000000000003 3.258479225980838 L 0.2715 3.010979225980838 L 0.21075 3.010979225980838 L 0.213 3.067979225980838 C 0.10725 3.085229225980838 0.0225 3.150479225980838 0.0225 3.230729225980838 C 0.0225 3.3124792259808378 0.12525 3.349979225980838 0.23175 3.324479225980838 C 0.2505 3.382979225980838 0.29925 3.401729225980838 0.3645 3.401729225980838 M 0.08175 3.220979225980838 C 0.08175 3.184229225980838 0.12975 3.139979225980838 0.216 3.130229225980838 L 0.22275 3.267479225980838 C 0.1665 3.277979225980838 0.08175 3.268229225980838 0.08175 3.220979225980838 M 0.3656422119140625 3.401729225980838 C 0.40764221191406247 3.401729225980838 0.4376422119140625 3.397229225980838 0.46914221191406247 3.351479225980838 C 0.5358922119140626 3.3934792259808377 0.5786422119140625 3.397979225980838 0.6078922119140625 3.397979225980838 C 0.6603922119140625 3.397979225980838 0.7143922119140624 3.367229225980838 0.7143922119140624 3.2764792259808377 C 0.7143922119140624 3.208229225980838 0.6611422119140624 3.129479225980838 0.5936422119140625 3.129479225980838 C 0.5508922119140625 3.129479225980838 0.5088922119140625 3.149729225980838 0.4653922119140625 3.244979225980838 C 0.4331422119140625 3.316229225980838 0.4143922119140625 3.340229225980838 0.3731422119140625 3.340229225980838 M 0.5058922119140625 3.284729225980838 C 0.5396422119140625 3.208229225980838 0.5621422119140624 3.190979225980838 0.5891422119140625 3.190979225980838 C 0.6251422119140625 3.190979225980838 0.6603922119140625 3.2412292259808377 0.6603922119140625 3.284729225980838 C 0.6603922119140625 3.315479225980838 0.6438922119140624 3.336479225980838 0.6011422119140625 3.336479225980838 C 0.5771422119140625 3.336479225980838 0.5411422119140625 3.328979225980838 0.4976422119140625 3.303479225980838 C 0.4998922119140625 3.297479225980838 0.5028922119140625 3.291479225980838 0.5058922119140625 3.284729225980838 M 0.8295355224609373 3.397979225980838 L 0.8902855224609374 3.397979225980838 L 0.8752855224609374 2.862479225980838 L 0.8145355224609374 2.862479225980838 M 1.101392578125 3.340229225980838 C 1.053392578125 3.340229225980838 1.016642578125 3.325979225980838 0.9963925781249999 3.3124792259808378 L 0.9663925781249999 3.364229225980838 C 0.997142578125 3.388229225980838 1.046642578125 3.402479225980838 1.101392578125 3.402479225980838 C 1.1786425781249998 3.402479225980838 1.2198925781249998 3.378479225980838 1.239392578125 3.3454792259808377 C 1.2611425781249999 3.386729225980838 1.300892578125 3.401729225980838 1.339142578125 3.401729225980838 C 1.3608925781249999 3.401729225980838 1.3766425781249998 3.385979225980838 1.3766425781249998 3.3694792259808377 C 1.3766425781249998 3.353729225980838 1.3668925781249999 3.340229225980838 1.345892578125 3.340229225980838 C 1.321892578125 3.340229225980838 1.288892578125 3.3342292259808377 1.268642578125 3.267479225980838 C 1.250642578125 3.208229225980838 1.2146425781249999 3.1354792259808377 1.156892578125 3.046229225980838 L 1.105142578125 3.079979225980838 C 1.158392578125 3.1594792259808377 1.203392578125 3.237479225980838 1.203392578125 3.2764792259808377 C 1.203392578125 3.316229225980838 1.175642578125 3.340229225980838 1.101392578125 3.340229225980838 M 1.5405043945312498 3.108479225980838 C 1.5607543945312496 3.108479225980838 1.5772543945312498 3.091979225980838 1.5772543945312498 3.071729225980838 C 1.5772543945312498 3.051479225980838 1.5607543945312496 3.034229225980838 1.5405043945312498 3.034229225980838 C 1.5195043945312496 3.034229225980838 1.5030043945312497 3.051479225980838 1.5030043945312497 3.071729225980838 C 1.5030043945312497 3.091979225980838 1.5195043945312496 3.108479225980838 1.5405043945312498 3.108479225980838 M 1.4377543945312496 3.108479225980838 C 1.4580043945312497 3.108479225980838 1.4745043945312497 3.091979225980838 1.4745043945312497 3.071729225980838 C 1.4745043945312497 3.051479225980838 1.4580043945312497 3.034229225980838 1.4377543945312496 3.034229225980838 C 1.4167543945312497 3.034229225980838 1.4002543945312498 3.051479225980838 1.4002543945312498 3.071729225980838 C 1.4002543945312498 3.091979225980838 1.4167543945312497 3.108479225980838 1.4377543945312496 3.108479225980838 M 1.3402543945312497 3.401729225980838 C 1.4175043945312498 3.401729225980838 1.4550043945312496 3.3934792259808377 1.4842543945312499 3.352229225980838 C 1.4955043945312498 3.385229225980838 1.5225043945312497 3.401729225980838 1.6200043945312497 3.401729225980838 C 1.6417543945312496 3.401729225980838 1.6575043945312498 3.385979225980838 1.6575043945312498 3.3694792259808377 C 1.6575043945312498 3.353729225980838 1.6485043945312499 3.340229225980838 1.6275043945312497 3.340229225980838 C 1.5112543945312498 3.340229225980838 1.5150043945312497 3.317729225980838 1.5150043945312497 3.2877292259808377 C 1.5150043945312497 3.2637292259808377 1.5247543945312496 3.223979225980838 1.5307543945312498 3.196979225980838 L 1.4722543945312498 3.185729225980838 C 1.4467543945312498 3.318479225980838 1.4475043945312498 3.340229225980838 1.3477543945312498 3.340229225980838 M 1.6211187744140623 3.401729225980838 C 1.6773687744140622 3.401729225980838 1.7148687744140623 3.394979225980838 1.7403687744140623 3.350729225980838 C 1.7568687744140623 3.3934792259808377 1.7981187744140623 3.401729225980838 1.8296187744140622 3.401729225980838 C 1.8911187744140623 3.401729225980838 1.9196187744140623 3.3942292259808378 1.9436187744140623 3.356729225980838 C 1.9578687744140622 3.387479225980838 1.9878687744140624 3.401729225980838 2.0426187744140623 3.401729225980838 C 2.122868774414062 3.401729225980838 2.1716187744140623 3.356729225980838 2.1716187744140623 3.2637292259808377 C 2.1716187744140623 3.2187292259808378 2.1513687744140624 3.144479225980838 2.1326187744140626 3.095729225980838 L 2.071868774414062 3.118229225980838 C 2.0936187744140624 3.175229225980838 2.1146187744140623 3.238229225980838 2.1146187744140623 3.2757292259808377 C 2.1146187744140623 3.327479225980838 2.086868774414062 3.340229225980838 2.0433687744140623 3.340229225980838 C 1.9841187744140623 3.340229225980838 1.9751187744140624 3.3222292259808377 1.9751187744140624 3.3004792259808378 C 1.9751187744140624 3.2749792259808377 1.9841187744140623 3.223979225980838 1.9886187744140622 3.196979225980838 L 1.9316187744140623 3.186479225980838 C 1.9091187744140623 3.333479225980838 1.8978687744140623 3.340229225980838 1.8386187744140623 3.340229225980838 C 1.7883687744140624 3.340229225980838 1.7726187744140622 3.325229225980838 1.7726187744140622 3.3004792259808378 C 1.7726187744140622 3.271979225980838 1.7831187744140622 3.232979225980838 1.7891187744140622 3.207479225980838 L 1.7328687744140623 3.191729225980838 C 1.7013687744140622 3.3349792259808377 1.6923687744140623 3.340229225980838 1.6286187744140623 3.340229225980838 M 2.2792412109374998 3.397979225980838 L 2.3399912109375 3.397979225980838 L 2.3249912109374997 2.862479225980838 L 2.2642412109374996 2.862479225980838 M 2.5792232666015624 3.571979225980838 C 2.654223266601562 3.553229225980838 2.7734732666015622 3.481229225980838 2.794473266601562 3.3687292259808377 C 2.8102232666015623 3.388229225980838 2.8349732666015623 3.401729225980838 2.8732232666015625 3.401729225980838 C 2.8949732666015624 3.401729225980838 2.910723266601562 3.385979225980838 2.910723266601562 3.3694792259808377 C 2.910723266601562 3.353729225980838 2.901723266601562 3.340229225980838 2.8807232666015623 3.340229225980838 C 2.841723266601562 3.340229225980838 2.8207232666015623 3.328229225980838 2.807223266601562 3.284729225980838 C 2.795973266601562 3.247979225980838 2.7764732666015624 3.196979225980838 2.748723266601562 3.143729225980838 L 2.6939732666015623 3.1714792259808378 C 2.7202232666015624 3.216479225980838 2.7457232666015625 3.268979225980838 2.7457232666015625 3.317729225980838 C 2.7457232666015625 3.386729225980838 2.7029732666015622 3.466229225980838 2.5574732666015625 3.514979225980838 M 3.0235953369140622 3.025979225980838 C 3.0438453369140626 3.025979225980838 3.0603453369140623 3.009479225980838 3.0603453369140623 2.989229225980838 C 3.0603453369140623 2.968979225980838 3.0438453369140626 2.951729225980838 3.0235953369140622 2.951729225980838 C 3.0025953369140623 2.951729225980838 2.986095336914062 2.968979225980838 2.986095336914062 2.989229225980838 C 2.986095336914062 3.009479225980838 3.0025953369140623 3.025979225980838 3.0235953369140622 3.025979225980838 M 2.9725953369140625 3.108479225980838 C 2.9928453369140624 3.108479225980838 3.0093453369140626 3.091979225980838 3.0093453369140626 3.071729225980838 C 3.0093453369140626 3.051479225980838 2.9928453369140624 3.034229225980838 2.9725953369140625 3.034229225980838 C 2.951595336914062 3.034229225980838 2.9350953369140624 3.051479225980838 2.9350953369140624 3.071729225980838 C 2.9350953369140624 3.091979225980838 2.951595336914062 3.108479225980838 2.9725953369140625 3.108479225980838 M 3.0745953369140624 3.108479225980838 C 3.0948453369140623 3.108479225980838 3.1113453369140625 3.091979225980838 3.1113453369140625 3.071729225980838 C 3.1113453369140625 3.051479225980838 3.0948453369140623 3.034229225980838 3.0745953369140624 3.034229225980838 C 3.0535953369140625 3.034229225980838 3.0370953369140623 3.051479225980838 3.0370953369140623 3.071729225980838 C 3.0370953369140623 3.091979225980838 3.0535953369140625 3.108479225980838 3.0745953369140624 3.108479225980838 M 2.8743453369140624 3.401729225980838 C 2.951595336914062 3.401729225980838 2.9890953369140623 3.3934792259808377 3.0183453369140625 3.352229225980838 C 3.0295953369140625 3.385229225980838 3.056595336914062 3.401729225980838 3.1540953369140623 3.401729225980838 C 3.1758453369140622 3.401729225980838 3.1915953369140624 3.385979225980838 3.1915953369140624 3.3694792259808377 C 3.1915953369140624 3.353729225980838 3.1825953369140625 3.340229225980838 3.161595336914062 3.340229225980838 C 3.045345336914062 3.340229225980838 3.0490953369140623 3.317729225980838 3.0490953369140623 3.2877292259808377 C 3.0490953369140623 3.2637292259808377 3.0588453369140622 3.223979225980838 3.0648453369140625 3.196979225980838 L 3.0063453369140625 3.185729225980838 C 2.9808453369140624 3.318479225980838 2.9815953369140624 3.340229225980838 2.881845336914062 3.340229225980838 M 3.155209716796875 3.401729225980838 L 3.223459716796875 3.401729225980838 C 3.398959716796875 3.401729225980838 3.4184597167968747 3.3342292259808377 3.4184597167968747 3.289979225980838 C 3.4184597167968747 3.212729225980838 3.353959716796875 3.142979225980838 3.236959716796875 3.047729225980838 C 3.284959716796875 3.014729225980838 3.335209716796875 2.988479225980838 3.471709716796875 2.9232292259808377 L 3.446209716796875 2.867729225980838 C 3.317959716796875 2.932229225980838 3.2317097167968747 2.9704792259808377 3.191959716796875 3.013229225980838 C 3.181459716796875 3.024479225980838 3.176209716796875 3.046229225980838 3.176209716796875 3.068729225980838 C 3.176209716796875 3.082229225980838 3.239209716796875 3.121229225980838 3.295459716796875 3.177479225980838 C 3.3494597167968747 3.231479225980838 3.3622097167968747 3.262979225980838 3.3622097167968747 3.286229225980838 C 3.3622097167968747 3.3117292259808377 3.3502097167968747 3.340229225980838 3.2332097167968747 3.340229225980838 L 3.1627097167968747 3.340229225980838 M 3.4825751953125 2.869979225980838 C 3.5238251953125 2.860229225980838 3.5830751953125 2.8429792259808377 3.6198251953125 2.8294792259808377 L 3.6078251953125 2.791229225980838 C 3.5935751953125 2.797229225980838 3.5763251953125 2.802479225980838 3.5575751953125 2.8077292259808377 C 3.5388251953125 2.802479225980838 3.5140751953125 2.7844792259808377 3.5140751953125 2.7589792259808377 C 3.5140751953125 2.741729225980838 3.5275751953125 2.731979225980838 3.5508251953125 2.731979225980838 C 3.5613251953125 2.731979225980838 3.5703251953125 2.7342292259808376 3.5800751953125 2.7364792259808377 L 3.5860751953125 2.698979225980838 C 3.5748251953125 2.695229225980838 3.5613251953125 2.692979225980838 3.5508251953125 2.692979225980838 C 3.5103251953125 2.692979225980838 3.4735751953125 2.716229225980838 3.4735751953125 2.7612292259808378 C 3.4735751953125 2.785979225980838 3.4893251953125 2.8084792259808378 3.5088251953125 2.821229225980838 C 3.4983251953125 2.823479225980838 3.4878251953125 2.825729225980838 3.4735751953125 2.8294792259808377 M 3.5320751953125 3.397979225980838 L 3.5928251953125 3.397979225980838 L 3.5800751953125 2.914979225980838 L 3.5193251953124998 2.914979225980838 M 3.886814208984375 3.692729225980838 L 3.946064208984375 3.678479225980838 C 3.925064208984375 3.600479225980838 3.898064208984375 3.473729225980838 3.898064208984375 3.4167292259808377 C 3.898064208984375 3.383729225980838 3.903314208984375 3.336479225980838 3.9288142089843747 3.2982292259808377 C 3.969314208984375 3.3709792259808378 4.036814208984375 3.412229225980838 4.093064208984375 3.411479225980838 C 4.123814208984375 3.411479225980838 4.152314208984375 3.397979225980838 4.171064208984375 3.3694792259808377 C 4.190564208984375 3.389729225980838 4.215314208984375 3.401729225980838 4.250564208984375 3.401729225980838 C 4.272314208984375 3.401729225980838 4.288064208984375 3.385979225980838 4.288064208984375 3.3694792259808377 C 4.288064208984375 3.353729225980838 4.279064208984375 3.340229225980838 4.258064208984375 3.340229225980838 C 4.218314208984375 3.340229225980838 4.197314208984375 3.3237292259808378 4.168814208984375 3.237479225980838 C 4.138064208984375 3.144479225980838 4.116314208984375 3.126479225980838 4.079564208984375 3.126479225980838 C 4.006064208984375 3.126479225980838 3.836564208984375 3.232229225980838 3.836564208984375 3.4167292259808377 C 3.836564208984375 3.459479225980838 3.854564208984375 3.577979225980838 3.886814208984375 3.692729225980838 M 4.099064208984375 3.349979225980838 C 4.062314208984375 3.350729225980838 4.003064208984375 3.317729225980838 3.969314208984375 3.250229225980838 C 4.000814208984375 3.212729225980838 4.046564208984375 3.1932292259808377 4.069064208984375 3.1932292259808377 C 4.090814208984375 3.1932292259808377 4.107314208984375 3.2299792259808378 4.130564208984375 3.302729225980838 C 4.140314208984375 3.3342292259808377 4.125314208984375 3.349979225980838 4.099064208984375 3.349979225980838 M 4.2516979980468745 3.401729225980838 C 4.386697998046874 3.401729225980838 4.405447998046874 3.343979225980838 4.400947998046875 3.237479225980838 L 4.385947998046874 2.862479225980838 L 4.325197998046875 2.862479225980838 L 4.339447998046874 3.244229225980838 C 4.342447998046874 3.319979225980838 4.3431979980468745 3.340229225980838 4.258447998046875 3.340229225980838 M 4.666080322265625 3.401729225980838 C 4.687830322265625 3.401729225980838 4.7035803222656245 3.385979225980838 4.7035803222656245 3.3694792259808377 C 4.7035803222656245 3.353729225980838 4.694580322265624 3.340229225980838 4.673580322265624 3.340229225980838 C 4.5873303222656245 3.340229225980838 4.581330322265624 3.3222292259808377 4.578330322265624 3.248729225980838 L 4.5633303222656245 2.862479225980838 L 4.501830322265625 2.862479225980838 L 4.5168303222656245 3.272729225980838 C 4.519830322265625 3.362729225980838 4.545330322265625 3.401729225980838 4.666080322265625 3.401729225980838 M 4.667217041015625 3.401729225980838 C 4.823217041015624 3.401729225980838 4.9214670410156245 3.373979225980838 5.021967041015625 3.332729225980838 L 5.000967041015625 3.277979225980838 C 4.943217041015624 3.304229225980838 4.932717041015625 3.306479225980838 4.908717041015625 3.313979225980838 C 4.865217041015625 3.315479225980838 4.787217041015625 3.2772292259808378 4.787217041015625 3.211979225980838 C 4.787217041015625 3.161729225980838 4.825467041015624 3.130229225980838 4.880217041015625 3.130229225980838 C 4.8982170410156245 3.130229225980838 4.9214670410156245 3.133229225980838 4.941717041015624 3.138479225980838 L 4.954467041015625 3.080729225980838 C 4.930467041015625 3.073229225980838 4.903467041015625 3.068729225980838 4.880217041015625 3.068729225980838 C 4.790217041015625 3.068729225980838 4.725717041015625 3.127229225980838 4.725717041015625 3.211979225980838 C 4.725717041015625 3.281729225980838 4.775217041015624 3.321479225980838 4.802217041015624 3.336479225980838 C 4.792467041015625 3.337229225980838 4.769217041015625 3.340229225980838 4.674717041015625 3.340229225980838 M 5.275460083007812 3.570479225980838 C 5.409710083007812 3.555479225980838 5.491460083007812 3.4984792259808377 5.516960083007812 3.401729225980838 L 5.585960083007812 3.401729225980838 C 5.607710083007812 3.401729225980838 5.623460083007812 3.385979225980838 5.623460083007812 3.3694792259808377 C 5.623460083007812 3.353729225980838 5.614460083007812 3.340229225980838 5.5934600830078125 3.340229225980838 L 5.525960083007812 3.340229225980838 C 5.525960083007812 3.336479225980838 5.525960083007812 3.333479225980838 5.525960083007812 3.329729225980838 C 5.525960083007812 3.2052292259808377 5.4749600830078125 3.145229225980838 5.4059600830078125 3.145229225980838 C 5.3347100830078125 3.145229225980838 5.279960083007812 3.223979225980838 5.279960083007812 3.307229225980838 C 5.279960083007812 3.374729225980838 5.338460083007812 3.401729225980838 5.4067100830078125 3.401729225980838 L 5.454710083007813 3.401729225980838 C 5.426960083007812 3.472979225980838 5.354960083007812 3.496979225980838 5.261960083007812 3.508979225980838 M 5.435210083007812 3.340229225980838 C 5.371460083007812 3.340229225980838 5.339960083007812 3.330479225980838 5.339960083007812 3.295229225980838 C 5.339960083007812 3.247229225980838 5.368460083007812 3.2067292259808378 5.399960083007812 3.2067292259808378 C 5.439710083007812 3.2067292259808378 5.467460083007812 3.256979225980838 5.467460083007812 3.325229225980838 C 5.467460083007812 3.330479225980838 5.467460083007812 3.3357292259808378 5.466710083007812 3.340229225980838 M 5.58707373046875 3.401729225980838 C 5.75657373046875 3.401729225980838 5.82932373046875 3.337979225980838 5.905073730468749 3.301979225980838 C 5.92607373046875 3.387479225980838 5.98457373046875 3.401729225980838 6.06482373046875 3.401729225980838 C 6.08657373046875 3.401729225980838 6.10232373046875 3.385979225980838 6.10232373046875 3.3694792259808377 C 6.10232373046875 3.353729225980838 6.093323730468749 3.340229225980838 6.072323730468749 3.340229225980838 C 6.0033237304687495 3.340229225980838 5.97257373046875 3.329729225980838 5.953823730468749 3.284729225980838 C 5.96807373046875 3.281729225980838 5.9823237304687495 3.279479225980838 5.998823730468749 3.279479225980838 L 5.99357373046875 3.225479225980838 L 5.977823730468749 3.225479225980838 C 5.89982373046875 3.225479225980838 5.84282373046875 3.1339792259808377 5.71157373046875 3.1339792259808377 C 5.68607373046875 3.1339792259808377 5.65907373046875 3.138479225980838 5.63207373046875 3.1467292259808377 L 5.64407373046875 3.203729225980838 C 5.671073730468749 3.197729225980838 5.68682373046875 3.195479225980838 5.71157373046875 3.195479225980838 C 5.77907373046875 3.195479225980838 5.837573730468749 3.2179792259808377 5.87657373046875 3.2524792259808377 C 5.79632373046875 3.307979225980838 5.697323730468749 3.340229225980838 5.59382373046875 3.340229225980838 M 6.161966674804687 3.0177292259808377 C 6.182216674804687 3.0177292259808377 6.198716674804687 3.001229225980838 6.198716674804687 2.980979225980838 C 6.198716674804687 2.9607292259808378 6.182216674804687 2.943479225980838 6.161966674804687 2.943479225980838 C 6.140966674804687 2.943479225980838 6.124466674804688 2.9607292259808378 6.124466674804688 2.980979225980838 C 6.124466674804688 3.001229225980838 6.140966674804687 3.0177292259808377 6.161966674804687 3.0177292259808377 M 6.065966674804687 3.401729225980838 C 6.177716674804687 3.401729225980838 6.230216674804687 3.364229225980838 6.230216674804687 3.2637292259808377 C 6.230216674804687 3.2187292259808378 6.209966674804687 3.144479225980838 6.1912166748046875 3.095729225980838 L 6.130466674804687 3.118229225980838 C 6.152216674804687 3.175229225980838 6.173216674804687 3.238229225980838 6.173216674804687 3.2757292259808377 C 6.173216674804687 3.331229225980838 6.146216674804688 3.340229225980838 6.0734666748046875 3.340229225980838" fill="#000000" fill-rule="nonzero"></path></g></g><defs><clipPath id="SvgjsClipPath69538"><path d=" M -6.503998757422432 -1.0868725811005424 h 6.103998757422431 v 5.571724388181923 h -6.103998757422431 Z"></path></clipPath><clipPath id="SvgjsClipPath6953665036cb5-c7c7-48d3-86fd-9896d8ddecef"><path d=" M -6.503998757422432 -1.0868725811005424 L -0.40000000000000036 -1.0868725811005424 L -0.40000000000000036 4.48485180708138 L -6.503998757422432 4.48485180708138 Z"></path></clipPath></defs></svg>