<svg xmlns="http://www.w3.org/2000/svg" version="1.1" xmlns:xlink="http://www.w3.org/1999/xlink" xmlns:svgjs="http://svgjs.dev/svgjs" viewBox="0 0 14.606044509482867 7.406067015242359"><g transform="matrix(0.801486871462627,0,0,0.801486871462627,7.397716178326702,2.372142369187893)"><g transform="matrix(1,0,0,1,0,0)" clip-path="url(#SvgjsClipPath3928)"><g clip-path="url(#SvgjsClipPath39242cde11e8-d272-48c8-8c1f-801d8f24b0a5)"><path d=" M -3.1358577028889143 -1.1239671997758685 L -3.469806967700483 -0.545660050223061 L -3.0955546038601867 0.10101261464503986 L -3.0955546038601867 0.10101261464503986 L -3.0955546038601867 0.10101261464503986 C -3.0805851530104484 0.12742597537361688 -3.084093254522639 0.1604387813950483 -3.10427934581471 0.18311634303797875 C -3.139291989359776 0.22056916057052 -3.151697737522075 0.27383944317941866 -3.1368343531077088 0.3229075443541116 C -3.123372652612603 0.37254424808768016 -3.0845824783482754 0.41130963629816075 -3.034937180280622 0.4247396071666081 L -2.0903861986815944 0.690193136633706 C -2.0527804315886398 0.7017475229740453 -2.012039788196927 0.6968264696491471 -1.9782667535645135 0.6766502535998149 C -1.943540421656782 0.6579023426318389 -1.9182683232322244 0.6254501340006737 -1.9085990379575 0.5871890935586603 L -1.6473776594384884 -0.36211491910514326 C -1.6309514887128786 -0.41900925050575555 -1.6507730431560717 -0.48017511356646914 -1.6974472606551174 -0.5166209837177117 C -1.7432565413377894 -0.5540517274876372 -1.807211112850525 -0.55990091674364 -1.8590503168575552 -0.5314009570287265 C -1.892555667684661 -0.5134384495049684 -1.9342683412078445 -0.5252412073686713 -1.953394727992663 -0.5580960630089821 L -2.198403712879764 -0.981832037934642 C -2.2228841493273395 -1.024996185167489 -2.258326225460676 -1.0609323840352571 -2.301147315896463 -1.0860080612722323 L -2.301147315896463 -1.0863987213597501 C -2.344272902298875 -1.1107977202082815 -2.393085293721115 -1.1233546124333358 -2.4426313775918294 -1.1227952195133195 Z" fill="#aac527" transform="matrix(1,0,0,1,0,0)" fill-rule="evenodd"></path></g><g clip-path="url(#SvgjsClipPath39242cde11e8-d272-48c8-8c1f-801d8f24b0a5)"><path d=" M -3.9233633293065235 -0.041643427312875625 L -3.9212146988251844 -0.04555002818803611 L -3.6139605399938777 -0.5776290673847851 L -3.613504769891774 -0.5782801675306452 L -3.6104445992062306 -0.5839447387996272 L -3.6099888291041293 -0.5839447387996272 L -3.2981118592372116 -1.1243578598633863 L -4.459869849495117 -1.1254647301113476 C -4.509759502324717 -1.12606373909354 -4.55890875002418 -1.1133662882704032 -4.602265451394691 -1.0886775718702648 C -4.645007206151259 -1.0635649942556544 -4.680377317296324 -1.027633452774953 -4.704813724367627 -0.9845015485326701 L -5.224000980676353 -0.08520202707090596 L -5.224000980676353 -0.08520202707090596 C -5.261214535027334 -0.02027693462326896 -5.271187954592019 0.056747831498380696 -5.251737846889991 0.12900992091701569 C -5.232430817237985 0.20120154210772956 -5.18530147800363 0.26279979919943286 -5.120671387528386 0.3003143692927712 L -4.615678114399402 0.5925932247693 C -4.583828513253997 0.6114900718191589 -4.548557150110154 0.6239036444187176 -4.511892751149329 0.629119942952036 C -4.474802342113259 0.6335634166103419 -4.437200936312317 0.6307101334642675 -4.401205726353139 0.6207207510704469 C -4.365133253471432 0.6116587700570892 -4.331254167080956 0.5954278090608665 -4.301587404036569 0.572995110378909 C -4.272453088333075 0.550285950058083 -4.248110133310064 0.522025992272281 -4.229966387991975 0.48984962175260094 L -4.229966387991975 0.48984962175260094 Z" fill="#d4d6c9" transform="matrix(1,0,0,1,0,0)" fill-rule="evenodd"></path></g><g clip-path="url(#SvgjsClipPath39242cde11e8-d272-48c8-8c1f-801d8f24b0a5)"><path d=" M -1.102341727339125 3.493569924648305 L -1.4360305520923493 2.915392995124668 L -2.1769174080663865 2.9159138752413614 L -2.1834284095249883 2.9163045353288752 C -2.213939438150672 2.916346499158433 -2.2409759610487106 2.8966548544381436 -2.2502963945048062 2.867602244418547 C -2.2653836868401758 2.8186973228741135 -2.3053328094304932 2.781500746905477 -2.35518862800284 2.7699372225395535 C -2.404704223475661 2.7569814206974 -2.4573775779362244 2.7712275066874428 -2.493612519012663 2.807375480926505 L -3.195498476249686 3.4919421742836545 C -3.224316006853561 3.5188660362641495 -3.2404592918983317 3.556683395080593 -3.2399686162119212 3.5961181976212493 C -3.2412599667482613 3.635481633403932 -3.225894215198824 3.6735650576287644 -3.1976471067310253 3.7010104311192786 L -2.505918311769415 4.401919738137519 C -2.464909150817806 4.444598690312343 -2.402068972248512 4.458053396306264 -2.34718009620876 4.435907165751406 C -2.291748711476716 4.414977148339071 -2.2546608044909977 4.362388662703557 -2.253551895234101 4.303147846010567 C -2.2522842627549453 4.26516487749169 -2.2210415194452446 4.235076067452898 -2.1830377494374655 4.235238100797384 L -1.6937359898237156 4.234847440709862 C -1.6440082767818867 4.235234291110345 -1.5950548438917709 4.222524363121444 -1.5517961580262458 4.197995172454187 C -1.5092846226235679 4.1726963314685115 -1.4740631822048256 4.136801869895272 -1.4495734351262337 4.093819149116593 Z" fill="#aac527" transform="matrix(1,0,0,1,0,0)" fill-rule="evenodd"></path></g><g clip-path="url(#SvgjsClipPath39242cde11e8-d272-48c8-8c1f-801d8f24b0a5)"><path d=" M -1.3327009589443763 2.813626042326759 L -1.02101931912122 3.352932293142557 L -0.4393264488099424 2.347438337891039 C -0.4139668382911621 2.3046561979618296 -0.4004810564032244 2.255882620133787 -0.4002604400583474 2.206149606239436 C -0.4007209789732462 2.156388385585932 -0.41418864760738483 2.107612979015966 -0.43932644880994687 2.0646655445440607 L -0.9566255146956726 1.1691424039282903 L -0.9587741451770118 1.1657566831698185 C -0.9960814954206647 1.1009043448177125 -1.0577939058937638 1.0536821583842624 -1.1301437035673505 1.0346251137936262 C -1.2023263840808003 1.0149590519344276 -1.2793662958247252 1.0247969245195452 -1.344290541540687 1.061971319919746 L -1.8496744747571805 1.3533386351920726 C -1.8820146675209362 1.3713272981582096 -1.9103672757708026 1.3956928208729376 -1.9330152934272515 1.4249596512366662 L -1.9330152934272515 1.4249596512366662 L -1.9334710635293524 1.4249596512366662 C -1.955806215993526 1.4547778437232934 -1.972126494153117 1.4886567951331786 -1.981522254293818 1.5247081935824158 C -1.9914392956133504 1.5604719207734998 -1.9942703983186467 1.5978292056895316 -1.9898563361608197 1.6346790082181593 C -1.9848845085186033 1.670267344812694 -1.9730782332637604 1.7045586049630055 -1.955087588371903 1.735664640841037 L -1.9534598380072552 1.7385945914974075 L -1.3349146994403034 2.809393891378673 L -1.3349146994403034 2.809393891378673 L -1.3331567290464816 2.8129749421809036 Z" fill="#d4d6c9" transform="matrix(1,0,0,1,0,0)" fill-rule="evenodd"></path></g><g clip-path="url(#SvgjsClipPath39242cde11e8-d272-48c8-8c1f-801d8f24b0a5)"><path d=" M -6.119133461204615 2.9456691519071545 L -5.450844271493963 2.9456691519071545 L -5.08023806847048 2.3026426478558673 L -5.078154548003729 2.2984756069223686 C -5.062816104209839 2.2721438711926574 -5.03229806166374 2.2586444960905063 -5.002496711054803 2.265009059425157 C -4.952603334945314 2.276453404201308 -4.900389821908614 2.260479293799582 -4.865440130351283 2.2230782100317854 C -4.829310274407149 2.186806238173916 -4.815285679796064 2.1340092244787456 -4.828652972110195 2.0845892090073774 L -5.070406456267996 1.133982996051849 C -5.079476069538492 1.0954643679814007 -5.104144754075881 1.0624470081799293 -5.1385115315249426 1.042828975631461 C -5.172143136880534 1.0223623791203105 -5.212715928559033 1.0166402732712854 -5.2506960866566175 1.027007242087064 L -6.204232250268512 1.2758577178347332 C -6.261728009826263 1.2902617242686052 -6.3047237071215605 1.33812631718332 -6.312900864612535 1.3968321249355151 C -6.322377769730384 1.4552332877004686 -6.295290049396062 1.5135105831625961 -6.244535349297242 1.5439156478852758 C -6.212123540919853 1.563899384127697 -6.201406282799239 1.6059905511014048 -6.220314423871247 1.639041379195417 L -6.4649327486708295 2.0631029041940026 C -6.4900257554827165 2.105831940775995 -6.503494327292042 2.154386142148616 -6.503998757422432 2.203935865743509 L -6.503998757422432 2.203935865743509 C -6.503642967211816 2.253609087039537 -6.490165948488207 2.302306048027518 -6.4649327486708295 2.3450943773659496 Z" fill="#aac527" transform="matrix(1,0,0,1,0,0)" fill-rule="evenodd"></path></g><g clip-path="url(#SvgjsClipPath39242cde11e8-d272-48c8-8c1f-801d8f24b0a5)"><path d=" M -4.985568107262441 3.086697443500419 L -4.990190918298049 3.087088103587933 L -6.037745942972119 3.087088103587933 L -5.457680823025495 4.093493599043658 C -5.433474634208614 4.136861629166136 -5.3980853949688 4.1729478610466355 -5.355197660067137 4.197995172454178 C -5.311938473179768 4.222581458796901 -5.262948545954996 4.235295030007002 -5.213192718255082 4.234847440709853 L -5.213192718255082 4.234847440709853 L -4.174948425666809 4.235238100797371 L -4.174948425666809 4.234847440709853 C -4.10002874494765 4.234911516165399 -4.028169001329484 4.205132013674795 -3.97525601093156 4.152092612171058 C -3.9224867734436892 4.099243803014298 -3.8927615419683046 4.027669190532608 -3.8925662924073485 3.952986187567086 L -3.8919151922614885 3.3694702368474023 C -3.8915974509357825 3.3322562708432133 -3.8985649179752593 3.295339755005451 -3.912424846856073 3.2608016225033833 C -3.9268214351012136 3.2265665164782393 -3.947943639653863 3.1955695705938507 -3.974539800771116 3.169647602082995 C -4.0006581360006965 3.1433193578422016 -4.031607641495876 3.12227369410548 -4.065693821191509 3.1076628681971186 L -4.065693821191509 3.1076628681971186 C -4.100235449854111 3.093835580328095 -4.13715832881213 3.0869332806067633 -4.174362435535532 3.087348543646288 L -4.174362435535532 3.086957883558775 Z" fill="#d4d6c9" transform="matrix(1,0,0,1,0,0)" fill-rule="evenodd"></path></g></g><g><path d=" M 0.0707175 1.6709742180175784 C 0.153558 1.7356302180175784 0.286911 1.7740197180175785 0.43440750000000006 1.7740197180175785 C 0.7677900000000001 1.7740197180175785 0.8728560000000001 1.6083387180175783 0.8728560000000001 1.4446782180175783 C 0.8728560000000001 1.3153662180175782 0.7980975 1.1112957180175784 0.5839245000000001 0.8142822180175784 L 0.44451 0.9052047180175783 C 0.678888 1.2365667180175783 0.7091955000000001 1.3557762180175783 0.7091955000000001 1.4345757180175784 C 0.7091955000000001 1.5416622180175783 0.634437 1.6063182180175783 0.43440750000000006 1.6063182180175783 C 0.3050955 1.6063182180175783 0.20609100000000002 1.5679287180175785 0.15153750000000002 1.5315597180175784 M 1.153684781982422 0.5697543625488284 C 1.226422781982422 0.5697543625488284 1.2850172819824222 0.5293443625488283 1.3092632819824221 0.4667088625488285 C 1.3335092819824221 0.4889343625488285 1.3718987819824222 0.5030778625488284 1.4143292819824222 0.5030778625488284 C 1.5193952819824221 0.5030778625488284 1.567887281982422 0.4182168625488283 1.567887281982422 0.32931486254882847 C 1.567887281982422 0.2747613625488283 1.547682281982422 0.20404386254882834 1.521415781982422 0.1515108625488284 L 1.430493281982422 0.17979786254882835 C 1.4486777819824221 0.22626936254882835 1.4608007819824222 0.27274086254882834 1.4608007819824222 0.31921236254882834 C 1.4608007819824222 0.36568386254882834 1.4486777819824221 0.3980118625488285 1.4001857819824222 0.3980118625488285 C 1.3516937819824222 0.3980118625488285 1.341591281982422 0.36568386254882834 1.341591281982422 0.3272943625488285 L 1.341591281982422 0.20404386254882834 L 1.244607281982422 0.24041286254882843 L 1.244607281982422 0.3010278625488283 C 1.2405662819824221 0.4283193625488284 1.2122792819824222 0.45862686254882834 1.1718692819824221 0.45862686254882834 C 1.135500281982422 0.45862686254882834 1.1213567819824222 0.43438086254882835 1.1213567819824222 0.3838683625488284 C 1.1213567819824222 0.35558136254882844 1.1253977819824221 0.3151713625488284 1.133479781982422 0.2686998625488284 L 1.0324547819824221 0.29698686254882833 C 1.024372781982422 0.34143786254882835 1.020331781982422 0.3717453625488283 1.020331781982422 0.40205286254882844 C 1.020331781982422 0.48287286254882833 1.046598281982422 0.5697543625488284 1.153684781982422 0.5697543625488284 M 1.406247281982422 1.6063182180175783 C 1.276935281982422 1.6063182180175783 1.177930781982422 1.5679287180175785 1.1233772819824221 1.5315597180175784 L 1.042557281982422 1.6709742180175784 C 1.1253977819824221 1.7356302180175784 1.258750781982422 1.7740197180175785 1.406247281982422 1.7740197180175785 C 1.614358781982422 1.7740197180175785 1.7254862819824222 1.7093637180175785 1.778019281982422 1.6204617180175784 C 1.8366137819824222 1.7315892180175785 1.943700281982422 1.7719992180175783 2.0467457819824224 1.7719992180175783 C 2.1053402819824223 1.7719992180175783 2.1477707819824223 1.7295687180175785 2.1477707819824223 1.6851177180175785 C 2.1477707819824223 1.6426872180175784 2.121504281982422 1.6063182180175783 2.0649302819824222 1.6063182180175783 C 2.0002742819824224 1.6063182180175783 1.9113722819824221 1.5901542180175783 1.856818781982422 1.4103297180175784 C 1.808326781982422 1.2507102180175784 1.711342781982422 1.0547217180175783 1.5557642819824222 0.8142822180175784 L 1.416349781982422 0.9052047180175783 C 1.5598052819824222 1.1193777180175783 1.6810352819824221 1.3295097180175783 1.6810352819824221 1.4345757180175784 C 1.6810352819824221 1.5416622180175783 1.6062767819824222 1.6063182180175783 1.406247281982422 1.6063182180175783 M 2.1315712653808596 0.7597652211914065 L 2.5841632653808597 0.6284327211914065 L 2.5841632653808597 0.5132642211914065 L 2.1315712653808596 0.6466172211914065 M 2.0547922653808595 1.7719992180175783 C 2.5114252653808595 1.7719992180175783 2.7074137653808594 1.6002567180175784 2.9114842653808597 1.5032727180175784 C 2.9680582653808596 1.7336097180175785 3.12565726538086 1.7719992180175783 3.3418507653808596 1.7719992180175783 C 3.40044526538086 1.7719992180175783 3.4428757653808595 1.7295687180175785 3.4428757653808595 1.6851177180175785 C 3.4428757653808595 1.6426872180175784 3.4186297653808593 1.6063182180175783 3.36205576538086 1.6063182180175783 C 3.17616976538086 1.6063182180175783 3.0933292653808593 1.5780312180175784 3.0428167653808593 1.4568012180175784 C 3.0812062653808594 1.4487192180175783 3.1195957653808595 1.4426577180175784 3.1640467653808595 1.4426577180175784 L 3.1499032653808596 1.2971817180175784 L 3.1074727653808596 1.2971817180175784 C 2.8973407653808594 1.2971817180175784 2.7437827653808595 1.0506807180175783 2.3901952653808594 1.0506807180175783 C 2.3214982653808596 1.0506807180175783 2.2487602653808594 1.0628037180175784 2.1760222653808596 1.0850292180175782 L 2.2083502653808593 1.2385872180175783 C 2.2810882653808595 1.2224232180175783 2.3235187653808596 1.2163617180175783 2.3901952653808594 1.2163617180175783 C 2.5720402653808594 1.2163617180175783 2.7296392653808597 1.2769767180175784 2.8347052653808595 1.3699197180175784 C 2.6185117653808594 1.5194367180175785 2.3518057653808597 1.6063182180175783 2.0729767653808593 1.6063182180175783 M 2.5821427653808593 2.1377097180175784 C 2.6366962653808597 2.1377097180175784 2.6811472653808597 2.0932587180175783 2.6811472653808597 2.0387052180175784 C 2.6811472653808597 1.9841517180175785 2.6366962653808597 1.9376802180175785 2.5821427653808593 1.9376802180175785 C 2.5255687653808594 1.9376802180175785 2.4811177653808594 1.9841517180175785 2.4811177653808594 2.0387052180175784 C 2.4811177653808594 2.0932587180175783 2.5255687653808594 2.1377097180175784 2.5821427653808593 2.1377097180175784 M 3.4267601074218756 0.24650100000000008 L 3.8793521074218758 0.11516850000000001 L 3.8793521074218758 0 L 3.4267601074218756 0.13335300000000005 M 3.7904501074218757 0.7375032180175782 C 3.8450036074218756 0.7375032180175782 3.8894546074218757 0.6930522180175784 3.8894546074218757 0.6384987180175783 C 3.8894546074218757 0.5839452180175784 3.8450036074218756 0.5374737180175784 3.7904501074218757 0.5374737180175784 C 3.7338761074218754 0.5374737180175784 3.6894251074218753 0.5839452180175784 3.6894251074218753 0.6384987180175783 C 3.6894251074218753 0.6930522180175784 3.7338761074218754 0.7375032180175782 3.7904501074218757 0.7375032180175782 M 3.5136416074218757 0.7375032180175782 C 3.5681951074218756 0.7375032180175782 3.6126461074218756 0.6930522180175784 3.6126461074218756 0.6384987180175783 C 3.6126461074218756 0.5839452180175784 3.5681951074218756 0.5374737180175784 3.5136416074218757 0.5374737180175784 C 3.4570676074218754 0.5374737180175784 3.4126166074218753 0.5839452180175784 3.4126166074218753 0.6384987180175783 C 3.4126166074218753 0.6930522180175784 3.4570676074218754 0.7375032180175782 3.5136416074218757 0.7375032180175782 M 3.3499811074218755 1.7719992180175783 C 3.6914456074218753 1.7719992180175783 3.8328806074218758 1.6709742180175784 3.8328806074218758 1.4002272180175783 C 3.8328806074218758 1.2789972180175784 3.7783271074218754 1.0789677180175783 3.7278146074218754 0.9476352180175783 L 3.5641541074218757 1.0082502180175783 C 3.6227486074218755 1.1618082180175784 3.6793226074218754 1.3315302180175783 3.6793226074218754 1.4325552180175785 C 3.6793226074218754 1.5962157180175784 3.6065846074218757 1.6063182180175783 3.3701861074218753 1.6063182180175783" fill="#000000" fill-rule="nonzero"></path></g><g><path d=" M 0.23550000000000001 2.8478053680175783 C 0.25575000000000003 2.8478053680175783 0.27225 2.8313053680175786 0.27225 2.8110553680175787 C 0.27225 2.7908053680175784 0.25575000000000003 2.7735553680175786 0.23550000000000001 2.7735553680175786 C 0.2145 2.7735553680175786 0.198 2.7908053680175784 0.198 2.8110553680175787 C 0.198 2.8313053680175786 0.2145 2.8478053680175783 0.23550000000000001 2.8478053680175783 M 0.13275 2.8478053680175783 C 0.153 2.8478053680175783 0.1695 2.8313053680175786 0.1695 2.8110553680175787 C 0.1695 2.7908053680175784 0.153 2.7735553680175786 0.13275 2.7735553680175786 C 0.11175 2.7735553680175786 0.09525 2.7908053680175784 0.09525 2.8110553680175787 C 0.09525 2.8313053680175786 0.11175 2.8478053680175783 0.13275 2.8478053680175783 M 0.3645 3.3248053680175786 C 0.38625 3.3248053680175786 0.402 3.3090553680175785 0.402 3.2925553680175783 C 0.402 3.2768053680175786 0.393 3.2633053680175785 0.372 3.2633053680175785 C 0.318 3.2633053680175785 0.28725 3.2520553680175786 0.28350000000000003 3.1815553680175785 L 0.2715 2.9340553680175785 L 0.21075 2.9340553680175785 L 0.213 2.9910553680175784 C 0.10725 3.0083053680175786 0.0225 3.0735553680175784 0.0225 3.1538053680175784 C 0.0225 3.2355553680175784 0.12525 3.2730553680175785 0.23175 3.2475553680175784 C 0.2505 3.3060553680175784 0.29925 3.3248053680175786 0.3645 3.3248053680175786 M 0.08175 3.1440553680175785 C 0.08175 3.1073053680175784 0.12975 3.0630553680175785 0.216 3.0533053680175786 L 0.22275 3.1905553680175784 C 0.1665 3.2010553680175784 0.08175 3.1913053680175785 0.08175 3.1440553680175785 M 0.3656422119140625 3.3248053680175786 C 0.40764221191406247 3.3248053680175786 0.4376422119140625 3.3203053680175785 0.46914221191406247 3.2745553680175785 C 0.5358922119140626 3.3165553680175783 0.5786422119140625 3.3210553680175785 0.6078922119140625 3.3210553680175785 C 0.6603922119140625 3.3210553680175785 0.7143922119140624 3.2903053680175787 0.7143922119140624 3.1995553680175783 C 0.7143922119140624 3.1313053680175784 0.6611422119140624 3.0525553680175785 0.5936422119140625 3.0525553680175785 C 0.5508922119140625 3.0525553680175785 0.5088922119140625 3.0728053680175784 0.4653922119140625 3.1680553680175785 C 0.4331422119140625 3.2393053680175785 0.4143922119140625 3.2633053680175785 0.3731422119140625 3.2633053680175785 M 0.5058922119140625 3.2078053680175787 C 0.5396422119140625 3.1313053680175784 0.5621422119140624 3.1140553680175787 0.5891422119140625 3.1140553680175787 C 0.6251422119140625 3.1140553680175787 0.6603922119140625 3.1643053680175783 0.6603922119140625 3.2078053680175787 C 0.6603922119140625 3.2385553680175785 0.6438922119140624 3.2595553680175784 0.6011422119140625 3.2595553680175784 C 0.5771422119140625 3.2595553680175784 0.5411422119140625 3.2520553680175786 0.4976422119140625 3.2265553680175785 C 0.4998922119140625 3.2205553680175787 0.5028922119140625 3.2145553680175785 0.5058922119140625 3.2078053680175787 M 0.8295355224609373 3.3210553680175785 L 0.8902855224609374 3.3210553680175785 L 0.8752855224609374 2.7855553680175786 L 0.8145355224609374 2.7855553680175786 M 1.101392578125 3.2633053680175785 C 1.053392578125 3.2633053680175785 1.016642578125 3.2490553680175784 0.9963925781249999 3.2355553680175784 L 0.9663925781249999 3.2873053680175786 C 0.997142578125 3.3113053680175786 1.046642578125 3.3255553680175787 1.101392578125 3.3255553680175787 C 1.1786425781249998 3.3255553680175787 1.2198925781249998 3.3015553680175787 1.239392578125 3.2685553680175783 C 1.2611425781249999 3.3098053680175785 1.300892578125 3.3248053680175786 1.339142578125 3.3248053680175786 C 1.3608925781249999 3.3248053680175786 1.3766425781249998 3.3090553680175785 1.3766425781249998 3.2925553680175783 C 1.3766425781249998 3.2768053680175786 1.3668925781249999 3.2633053680175785 1.345892578125 3.2633053680175785 C 1.321892578125 3.2633053680175785 1.288892578125 3.2573053680175783 1.268642578125 3.1905553680175784 C 1.250642578125 3.1313053680175784 1.2146425781249999 3.0585553680175783 1.156892578125 2.9693053680175785 L 1.105142578125 3.0030553680175784 C 1.158392578125 3.0825553680175783 1.203392578125 3.1605553680175786 1.203392578125 3.1995553680175783 C 1.203392578125 3.2393053680175785 1.175642578125 3.2633053680175785 1.101392578125 3.2633053680175785 M 1.5405043945312498 3.0315553680175786 C 1.5607543945312496 3.0315553680175786 1.5772543945312498 3.0150553680175785 1.5772543945312498 2.9948053680175786 C 1.5772543945312498 2.9745553680175787 1.5607543945312496 2.9573053680175785 1.5405043945312498 2.9573053680175785 C 1.5195043945312496 2.9573053680175785 1.5030043945312497 2.9745553680175787 1.5030043945312497 2.9948053680175786 C 1.5030043945312497 3.0150553680175785 1.5195043945312496 3.0315553680175786 1.5405043945312498 3.0315553680175786 M 1.4377543945312496 3.0315553680175786 C 1.4580043945312497 3.0315553680175786 1.4745043945312497 3.0150553680175785 1.4745043945312497 2.9948053680175786 C 1.4745043945312497 2.9745553680175787 1.4580043945312497 2.9573053680175785 1.4377543945312496 2.9573053680175785 C 1.4167543945312497 2.9573053680175785 1.4002543945312498 2.9745553680175787 1.4002543945312498 2.9948053680175786 C 1.4002543945312498 3.0150553680175785 1.4167543945312497 3.0315553680175786 1.4377543945312496 3.0315553680175786 M 1.3402543945312497 3.3248053680175786 C 1.4175043945312498 3.3248053680175786 1.4550043945312496 3.3165553680175783 1.4842543945312499 3.2753053680175785 C 1.4955043945312498 3.3083053680175785 1.5225043945312497 3.3248053680175786 1.6200043945312497 3.3248053680175786 C 1.6417543945312496 3.3248053680175786 1.6575043945312498 3.3090553680175785 1.6575043945312498 3.2925553680175783 C 1.6575043945312498 3.2768053680175786 1.6485043945312499 3.2633053680175785 1.6275043945312497 3.2633053680175785 C 1.5112543945312498 3.2633053680175785 1.5150043945312497 3.2408053680175786 1.5150043945312497 3.2108053680175783 C 1.5150043945312497 3.1868053680175783 1.5247543945312496 3.1470553680175786 1.5307543945312498 3.1200553680175784 L 1.4722543945312498 3.1088053680175785 C 1.4467543945312498 3.2415553680175786 1.4475043945312498 3.2633053680175785 1.3477543945312498 3.2633053680175785 M 1.6211187744140623 3.3248053680175786 C 1.6773687744140622 3.3248053680175786 1.7148687744140623 3.3180553680175784 1.7403687744140623 3.2738053680175785 C 1.7568687744140623 3.3165553680175783 1.7981187744140623 3.3248053680175786 1.8296187744140622 3.3248053680175786 C 1.8911187744140623 3.3248053680175786 1.9196187744140623 3.3173053680175784 1.9436187744140623 3.2798053680175787 C 1.9578687744140622 3.3105553680175785 1.9878687744140624 3.3248053680175786 2.0426187744140623 3.3248053680175786 C 2.122868774414062 3.3248053680175786 2.1716187744140623 3.2798053680175787 2.1716187744140623 3.1868053680175783 C 2.1716187744140623 3.1418053680175784 2.1513687744140624 3.0675553680175787 2.1326187744140626 3.0188053680175786 L 2.071868774414062 3.0413053680175786 C 2.0936187744140624 3.0983053680175785 2.1146187744140623 3.1613053680175787 2.1146187744140623 3.1988053680175783 C 2.1146187744140623 3.2505553680175785 2.086868774414062 3.2633053680175785 2.0433687744140623 3.2633053680175785 C 1.9841187744140623 3.2633053680175785 1.9751187744140624 3.2453053680175783 1.9751187744140624 3.2235553680175784 C 1.9751187744140624 3.1980553680175783 1.9841187744140623 3.1470553680175786 1.9886187744140622 3.1200553680175784 L 1.9316187744140623 3.1095553680175785 C 1.9091187744140623 3.2565553680175787 1.8978687744140623 3.2633053680175785 1.8386187744140623 3.2633053680175785 C 1.7883687744140624 3.2633053680175785 1.7726187744140622 3.2483053680175784 1.7726187744140622 3.2235553680175784 C 1.7726187744140622 3.1950553680175786 1.7831187744140622 3.1560553680175785 1.7891187744140622 3.1305553680175784 L 1.7328687744140623 3.1148053680175787 C 1.7013687744140622 3.2580553680175783 1.6923687744140623 3.2633053680175785 1.6286187744140623 3.2633053680175785 M 2.2792412109374998 3.3210553680175785 L 2.3399912109375 3.3210553680175785 L 2.3249912109374997 2.7855553680175786 L 2.2642412109374996 2.7855553680175786 M 2.5792232666015624 3.4950553680175784 C 2.654223266601562 3.4763053680175786 2.7734732666015622 3.4043053680175785 2.794473266601562 3.2918053680175783 C 2.8102232666015623 3.3113053680175786 2.8349732666015623 3.3248053680175786 2.8732232666015625 3.3248053680175786 C 2.8949732666015624 3.3248053680175786 2.910723266601562 3.3090553680175785 2.910723266601562 3.2925553680175783 C 2.910723266601562 3.2768053680175786 2.901723266601562 3.2633053680175785 2.8807232666015623 3.2633053680175785 C 2.841723266601562 3.2633053680175785 2.8207232666015623 3.2513053680175785 2.807223266601562 3.2078053680175787 C 2.795973266601562 3.1710553680175786 2.7764732666015624 3.1200553680175784 2.748723266601562 3.0668053680175786 L 2.6939732666015623 3.0945553680175784 C 2.7202232666015624 3.1395553680175787 2.7457232666015625 3.1920553680175785 2.7457232666015625 3.2408053680175786 C 2.7457232666015625 3.3098053680175785 2.7029732666015622 3.3893053680175784 2.5574732666015625 3.4380553680175785 M 3.0235953369140622 2.9490553680175786 C 3.0438453369140626 2.9490553680175786 3.0603453369140623 2.9325553680175784 3.0603453369140623 2.9123053680175786 C 3.0603453369140623 2.8920553680175787 3.0438453369140626 2.8748053680175785 3.0235953369140622 2.8748053680175785 C 3.0025953369140623 2.8748053680175785 2.986095336914062 2.8920553680175787 2.986095336914062 2.9123053680175786 C 2.986095336914062 2.9325553680175784 3.0025953369140623 2.9490553680175786 3.0235953369140622 2.9490553680175786 M 2.9725953369140625 3.0315553680175786 C 2.9928453369140624 3.0315553680175786 3.0093453369140626 3.0150553680175785 3.0093453369140626 2.9948053680175786 C 3.0093453369140626 2.9745553680175787 2.9928453369140624 2.9573053680175785 2.9725953369140625 2.9573053680175785 C 2.951595336914062 2.9573053680175785 2.9350953369140624 2.9745553680175787 2.9350953369140624 2.9948053680175786 C 2.9350953369140624 3.0150553680175785 2.951595336914062 3.0315553680175786 2.9725953369140625 3.0315553680175786 M 3.0745953369140624 3.0315553680175786 C 3.0948453369140623 3.0315553680175786 3.1113453369140625 3.0150553680175785 3.1113453369140625 2.9948053680175786 C 3.1113453369140625 2.9745553680175787 3.0948453369140623 2.9573053680175785 3.0745953369140624 2.9573053680175785 C 3.0535953369140625 2.9573053680175785 3.0370953369140623 2.9745553680175787 3.0370953369140623 2.9948053680175786 C 3.0370953369140623 3.0150553680175785 3.0535953369140625 3.0315553680175786 3.0745953369140624 3.0315553680175786 M 2.8743453369140624 3.3248053680175786 C 2.951595336914062 3.3248053680175786 2.9890953369140623 3.3165553680175783 3.0183453369140625 3.2753053680175785 C 3.0295953369140625 3.3083053680175785 3.056595336914062 3.3248053680175786 3.1540953369140623 3.3248053680175786 C 3.1758453369140622 3.3248053680175786 3.1915953369140624 3.3090553680175785 3.1915953369140624 3.2925553680175783 C 3.1915953369140624 3.2768053680175786 3.1825953369140625 3.2633053680175785 3.161595336914062 3.2633053680175785 C 3.045345336914062 3.2633053680175785 3.0490953369140623 3.2408053680175786 3.0490953369140623 3.2108053680175783 C 3.0490953369140623 3.1868053680175783 3.0588453369140622 3.1470553680175786 3.0648453369140625 3.1200553680175784 L 3.0063453369140625 3.1088053680175785 C 2.9808453369140624 3.2415553680175786 2.9815953369140624 3.2633053680175785 2.881845336914062 3.2633053680175785 M 3.155209716796875 3.3248053680175786 L 3.223459716796875 3.3248053680175786 C 3.398959716796875 3.3248053680175786 3.4184597167968747 3.2573053680175783 3.4184597167968747 3.2130553680175784 C 3.4184597167968747 3.1358053680175786 3.353959716796875 3.0660553680175786 3.236959716796875 2.9708053680175786 C 3.284959716796875 2.9378053680175786 3.335209716796875 2.9115553680175785 3.471709716796875 2.8463053680175783 L 3.446209716796875 2.7908053680175784 C 3.317959716796875 2.8553053680175786 3.2317097167968747 2.8935553680175783 3.191959716796875 2.9363053680175786 C 3.181459716796875 2.9475553680175786 3.176209716796875 2.9693053680175785 3.176209716796875 2.9918053680175785 C 3.176209716796875 3.0053053680175785 3.239209716796875 3.0443053680175787 3.295459716796875 3.1005553680175786 C 3.3494597167968747 3.1545553680175784 3.3622097167968747 3.1860553680175787 3.3622097167968747 3.2093053680175787 C 3.3622097167968747 3.2348053680175783 3.3502097167968747 3.2633053680175785 3.2332097167968747 3.2633053680175785 L 3.1627097167968747 3.2633053680175785 M 3.4825751953125 2.7930553680175785 C 3.5238251953125 2.7833053680175786 3.5830751953125 2.7660553680175783 3.6198251953125 2.7525553680175783 L 3.6078251953125 2.7143053680175786 C 3.5935751953125 2.7203053680175784 3.5763251953125 2.7255553680175786 3.5575751953125 2.7308053680175783 C 3.5388251953125 2.7255553680175786 3.5140751953125 2.7075553680175783 3.5140751953125 2.6820553680175783 C 3.5140751953125 2.6648053680175785 3.5275751953125 2.6550553680175786 3.5508251953125 2.6550553680175786 C 3.5613251953125 2.6550553680175786 3.5703251953125 2.657305368017578 3.5800751953125 2.6595553680175783 L 3.5860751953125 2.6220553680175787 C 3.5748251953125 2.6183053680175785 3.5613251953125 2.6160553680175784 3.5508251953125 2.6160553680175784 C 3.5103251953125 2.6160553680175784 3.4735751953125 2.6393053680175784 3.4735751953125 2.6843053680175784 C 3.4735751953125 2.7090553680175784 3.4893251953125 2.7315553680175784 3.5088251953125 2.7443053680175784 C 3.4983251953125 2.7465553680175785 3.4878251953125 2.7488053680175786 3.4735751953125 2.7525553680175783 M 3.5320751953125 3.3210553680175785 L 3.5928251953125 3.3210553680175785 L 3.5800751953125 2.8380553680175784 L 3.5193251953124998 2.8380553680175784 M 3.886814208984375 3.6158053680175786 L 3.946064208984375 3.6015553680175785 C 3.925064208984375 3.5235553680175786 3.898064208984375 3.3968053680175787 3.898064208984375 3.3398053680175783 C 3.898064208984375 3.3068053680175784 3.903314208984375 3.2595553680175784 3.9288142089843747 3.2213053680175783 C 3.969314208984375 3.2940553680175784 4.036814208984375 3.3353053680175786 4.093064208984375 3.3345553680175786 C 4.123814208984375 3.3345553680175786 4.152314208984375 3.3210553680175785 4.171064208984375 3.2925553680175783 C 4.190564208984375 3.3128053680175786 4.215314208984375 3.3248053680175786 4.250564208984375 3.3248053680175786 C 4.272314208984375 3.3248053680175786 4.288064208984375 3.3090553680175785 4.288064208984375 3.2925553680175783 C 4.288064208984375 3.2768053680175786 4.279064208984375 3.2633053680175785 4.258064208984375 3.2633053680175785 C 4.218314208984375 3.2633053680175785 4.197314208984375 3.2468053680175784 4.168814208984375 3.1605553680175786 C 4.138064208984375 3.0675553680175787 4.116314208984375 3.0495553680175784 4.079564208984375 3.0495553680175784 C 4.006064208984375 3.0495553680175784 3.836564208984375 3.1553053680175784 3.836564208984375 3.3398053680175783 C 3.836564208984375 3.3825553680175786 3.854564208984375 3.5010553680175787 3.886814208984375 3.6158053680175786 M 4.099064208984375 3.2730553680175785 C 4.062314208984375 3.2738053680175785 4.003064208984375 3.2408053680175786 3.969314208984375 3.1733053680175787 C 4.000814208984375 3.1358053680175786 4.046564208984375 3.1163053680175783 4.069064208984375 3.1163053680175783 C 4.090814208984375 3.1163053680175783 4.107314208984375 3.1530553680175784 4.130564208984375 3.2258053680175784 C 4.140314208984375 3.2573053680175783 4.125314208984375 3.2730553680175785 4.099064208984375 3.2730553680175785 M 4.2516979980468745 3.3248053680175786 C 4.386697998046874 3.3248053680175786 4.405447998046874 3.2670553680175787 4.400947998046875 3.1605553680175786 L 4.385947998046874 2.7855553680175786 L 4.325197998046875 2.7855553680175786 L 4.339447998046874 3.1673053680175784 C 4.342447998046874 3.2430553680175787 4.3431979980468745 3.2633053680175785 4.258447998046875 3.2633053680175785 M 4.666080322265625 3.3248053680175786 C 4.687830322265625 3.3248053680175786 4.7035803222656245 3.3090553680175785 4.7035803222656245 3.2925553680175783 C 4.7035803222656245 3.2768053680175786 4.694580322265624 3.2633053680175785 4.673580322265624 3.2633053680175785 C 4.5873303222656245 3.2633053680175785 4.581330322265624 3.2453053680175783 4.578330322265624 3.1718053680175786 L 4.5633303222656245 2.7855553680175786 L 4.501830322265625 2.7855553680175786 L 4.5168303222656245 3.1958053680175786 C 4.519830322265625 3.2858053680175785 4.545330322265625 3.3248053680175786 4.666080322265625 3.3248053680175786 M 4.667217041015625 3.3248053680175786 C 4.823217041015624 3.3248053680175786 4.9214670410156245 3.2970553680175785 5.021967041015625 3.2558053680175787 L 5.000967041015625 3.2010553680175784 C 4.943217041015624 3.2273053680175785 4.932717041015625 3.2295553680175786 4.908717041015625 3.2370553680175784 C 4.865217041015625 3.2385553680175785 4.787217041015625 3.2003053680175784 4.787217041015625 3.1350553680175786 C 4.787217041015625 3.0848053680175784 4.825467041015624 3.0533053680175786 4.880217041015625 3.0533053680175786 C 4.8982170410156245 3.0533053680175786 4.9214670410156245 3.0563053680175787 4.941717041015624 3.0615553680175784 L 4.954467041015625 3.0038053680175785 C 4.930467041015625 2.9963053680175786 4.903467041015625 2.9918053680175785 4.880217041015625 2.9918053680175785 C 4.790217041015625 2.9918053680175785 4.725717041015625 3.0503053680175785 4.725717041015625 3.1350553680175786 C 4.725717041015625 3.2048053680175785 4.775217041015624 3.2445553680175787 4.802217041015624 3.2595553680175784 C 4.792467041015625 3.2603053680175784 4.769217041015625 3.2633053680175785 4.674717041015625 3.2633053680175785 M 5.275460083007812 3.4935553680175784 C 5.409710083007812 3.4785553680175787 5.491460083007812 3.4215553680175783 5.516960083007812 3.3248053680175786 L 5.585960083007812 3.3248053680175786 C 5.607710083007812 3.3248053680175786 5.623460083007812 3.3090553680175785 5.623460083007812 3.2925553680175783 C 5.623460083007812 3.2768053680175786 5.614460083007812 3.2633053680175785 5.5934600830078125 3.2633053680175785 L 5.525960083007812 3.2633053680175785 C 5.525960083007812 3.2595553680175784 5.525960083007812 3.2565553680175787 5.525960083007812 3.2528053680175786 C 5.525960083007812 3.1283053680175783 5.4749600830078125 3.0683053680175787 5.4059600830078125 3.0683053680175787 C 5.3347100830078125 3.0683053680175787 5.279960083007812 3.1470553680175786 5.279960083007812 3.2303053680175786 C 5.279960083007812 3.2978053680175785 5.338460083007812 3.3248053680175786 5.4067100830078125 3.3248053680175786 L 5.454710083007813 3.3248053680175786 C 5.426960083007812 3.3960553680175787 5.354960083007812 3.4200553680175787 5.261960083007812 3.4320553680175787 M 5.435210083007812 3.2633053680175785 C 5.371460083007812 3.2633053680175785 5.339960083007812 3.2535553680175786 5.339960083007812 3.2183053680175786 C 5.339960083007812 3.1703053680175786 5.368460083007812 3.1298053680175784 5.399960083007812 3.1298053680175784 C 5.439710083007812 3.1298053680175784 5.467460083007812 3.1800553680175785 5.467460083007812 3.2483053680175784 C 5.467460083007812 3.2535553680175786 5.467460083007812 3.2588053680175784 5.466710083007812 3.2633053680175785 M 5.58707373046875 3.3248053680175786 C 5.75657373046875 3.3248053680175786 5.82932373046875 3.2610553680175784 5.905073730468749 3.2250553680175784 C 5.92607373046875 3.3105553680175785 5.98457373046875 3.3248053680175786 6.06482373046875 3.3248053680175786 C 6.08657373046875 3.3248053680175786 6.10232373046875 3.3090553680175785 6.10232373046875 3.2925553680175783 C 6.10232373046875 3.2768053680175786 6.093323730468749 3.2633053680175785 6.072323730468749 3.2633053680175785 C 6.0033237304687495 3.2633053680175785 5.97257373046875 3.2528053680175786 5.953823730468749 3.2078053680175787 C 5.96807373046875 3.2048053680175785 5.9823237304687495 3.2025553680175785 5.998823730468749 3.2025553680175785 L 5.99357373046875 3.1485553680175786 L 5.977823730468749 3.1485553680175786 C 5.89982373046875 3.1485553680175786 5.84282373046875 3.0570553680175783 5.71157373046875 3.0570553680175783 C 5.68607373046875 3.0570553680175783 5.65907373046875 3.0615553680175784 5.63207373046875 3.0698053680175783 L 5.64407373046875 3.1268053680175787 C 5.671073730468749 3.1208053680175785 5.68682373046875 3.1185553680175784 5.71157373046875 3.1185553680175784 C 5.77907373046875 3.1185553680175784 5.837573730468749 3.1410553680175783 5.87657373046875 3.1755553680175783 C 5.79632373046875 3.2310553680175786 5.697323730468749 3.2633053680175785 5.59382373046875 3.2633053680175785 M 6.161966674804687 2.9408053680175783 C 6.182216674804687 2.9408053680175783 6.198716674804687 2.9243053680175786 6.198716674804687 2.9040553680175787 C 6.198716674804687 2.8838053680175784 6.182216674804687 2.8665553680175786 6.161966674804687 2.8665553680175786 C 6.140966674804687 2.8665553680175786 6.124466674804688 2.8838053680175784 6.124466674804688 2.9040553680175787 C 6.124466674804688 2.9243053680175786 6.140966674804687 2.9408053680175783 6.161966674804687 2.9408053680175783 M 6.065966674804687 3.3248053680175786 C 6.177716674804687 3.3248053680175786 6.230216674804687 3.2873053680175786 6.230216674804687 3.1868053680175783 C 6.230216674804687 3.1418053680175784 6.209966674804687 3.0675553680175787 6.1912166748046875 3.0188053680175786 L 6.130466674804687 3.0413053680175786 C 6.152216674804687 3.0983053680175785 6.173216674804687 3.1613053680175787 6.173216674804687 3.1988053680175783 C 6.173216674804687 3.2543053680175786 6.146216674804688 3.2633053680175785 6.0734666748046875 3.2633053680175785" fill="#000000" fill-rule="nonzero"></path></g></g><defs><clipPath id="SvgjsClipPath3928"><path d=" M -6.503998757422432 -1.1253345100821721 h 6.103998757422431 v 5.571724388181923 h -6.103998757422431 Z"></path></clipPath><clipPath id="SvgjsClipPath39242cde11e8-d272-48c8-8c1f-801d8f24b0a5"><path d=" M -6.503998757422432 -1.1253345100821721 L -0.40000000000000036 -1.1253345100821721 L -0.40000000000000036 4.446389878099751 L -6.503998757422432 4.446389878099751 Z"></path></clipPath></defs></svg>